<svg xmlns="http://www.w3.org/2000/svg" xmlns:xlink="http://www.w3.org/1999/xlink" viewBox="0 0 500 500"><defs><style>.a87e8b55-fb70-4686-a355-52d5ae4a63f5{fill:#c5edff;}.f4b429ee-69e3-44d8-8144-fcab650a6a31{fill:#49213d;}.a1fbf8ec-1857-4aa1-999b-2420d9cfa815{fill:#7a486d;}.b6ec679c-fe8e-42c4-af58-7053a43b1446{fill:#fff;}.b151825a-ce24-42d2-b4e4-f68bb9fc93b0{fill:#e11524;}.ad0be220-d5e0-48d2-a605-6132f9e16221{fill:#b20012;}.a51c44d3-9b9e-4fbe-8411-d96d277af773{fill:#2b2b2b;}.b1be97ad-e59c-40ef-a910-065e4242f5e6{fill:#eb3236;}.a649f3c7-0c27-47ce-93d1-45219f735495{fill:#c0001b;}.f3365eb9-a47f-40ba-9966-95610fceb213{fill:#a7aab5;}.b50bbec4-40dd-4deb-8638-6f29596059dd{fill:#ffd0bd;}.a9788aa1-85b3-4ba6-9088-ec4e36cf085d{fill:url(#f3ef1ea4-1fa1-4690-af5d-5588d299b374);}.a2eb9b7f-a14e-45f7-be80-74af4c56362d{fill:#9dd0f9;}.f09028c2-a470-4546-bac7-bb0c90aa04db{fill:#d37659;}.bc344334-379b-4a1a-9c7f-176561141c27{fill:#f4aa90;}</style><linearGradient id="f3ef1ea4-1fa1-4690-af5d-5588d299b374" x1="209.23" y1="131.7" x2="208.81" y2="74.83" gradientUnits="userSpaceOnUse"><stop offset="0.08" stop-color="#ffd0bd"/><stop offset="0.99" stop-color="#f4aa8b"/></linearGradient></defs><title>actives icon</title><g id="a73b6dba-42c9-4251-b519-4c51add3f7fb" data-name="Layer 11"><polygon class="a87e8b55-fb70-4686-a355-52d5ae4a63f5" points="190.53 107.52 190.53 107.52 190.53 107.52 190.53 107.52"/><path class="a87e8b55-fb70-4686-a355-52d5ae4a63f5" d="M154.59,217.25l4.76.6c.18-3.37.22-7.13.24-9.61a11.18,11.18,0,0,0-1.37,3C158,212.75,156,215.43,154.59,217.25Z"/><path class="a87e8b55-fb70-4686-a355-52d5ae4a63f5" d="M125.62,192.13c5.9-8.68,14.41-43.57,14.41-43.57,8.51.87,11.28-5.55,11.28-5.55l.57-4.82,10.5-15.69c-1.53-.93-2.56-2.12-2.6-3.66-.06-2.4-.44-4.67.07-6.63a2.79,2.79,0,0,1-1.83-.15s-1.59-2.67-1.69-10.28,10.28-7.12,13.73-7.61,3.17-4.25-.36-8.9.93-8.83.93-8.83l.82-.51a3.85,3.85,0,0,1-1.11-2.33c-.46-5-1.2-15.4,0-19.34,1.64-5.3,5.88-20.49,22.36-24.49,12.34-3,22.63,4.1,28.66,11.9a33.86,33.86,0,0,1,4.54,7.76c2.54,6.31,4.33,11.26,5.26,13.94a1.41,1.41,0,0,1-1.48,1.86l-.2,0h0l.13.09c2.3,1.66,3,7.81,3,14h0a137.28,137.28,0,0,1-.71,14.25,26.92,26.92,0,0,1-4,2.15h0s-.85,3.63-2.39,8.37h0s4.2,1.22,5.13,4.54c1,0,2.27.12,4,.24,10.24.69,6.42,7.81,17.53,9.72S267.43,131,267.43,131s-2.78,3.13,11.28,5.21,21.7,17,26.39,19.27S316,172,320.54,173s3.3,10.24,3.3,10.24c3.47,1,14.06,13,16.32,16a7.31,7.31,0,0,1,1,6.42,4.56,4.56,0,0,0-.84-.26l1.17,1.07a25.84,25.84,0,0,1,3.21,2.36V24A244.29,244.29,0,0,0,250,5C132.15,5,33.75,88.22,10.31,199.09L123.25,213.3C122.3,206,122.53,196.67,125.62,192.13Z"/><path class="a87e8b55-fb70-4686-a355-52d5ae4a63f5" d="M163,106.51a15.66,15.66,0,0,1-.43,2.15,11,11,0,0,1,1.54-.81c3.76-1.62,7.62-4.39,10.44-5.27C171.92,101.26,163.85,99.61,163,106.51Z"/><path class="a87e8b55-fb70-4686-a355-52d5ae4a63f5" d="M339.14,234.87c-.21-1.27-2.76,4.92-5.45,2.21s-.89,5.58-4.9,4.59-10.11-4.46-9.4-7a1.55,1.55,0,0,1,.46-.77,21.37,21.37,0,0,1-3.86-7.65c-.92-4.46,3.34-6.7,3.34-6.7h0c-10.52-5.63-7.2-19.76-15.53-22.91-8.92-3.38-15.67-15.13-15.67-15.13-5.55,1.75-15.14-7.32-15.14-7.32-10.48-.88-26-13.06-26-13.06s-.33-.38-.88-1c-.08,1.4-.21,2.88-.42,4.47-1.53,11.79-11.51,38.5-11.51,38.5s7.06,8.29,8.75,11.82,2.41,10.13,3.28,11.66A19.2,19.2,0,0,0,248,229l10.82,1.36,85.9,28.18V237.07C342.3,237.17,339.31,235.87,339.14,234.87Z"/><path class="f4b429ee-69e3-44d8-8144-fcab650a6a31" d="M492.05,211.92A245,245,0,0,0,389.24,48.41l-6.94,171Z"/><path class="f4b429ee-69e3-44d8-8144-fcab650a6a31" d="M380.24,270.19l108.39,35.55a246.78,246.78,0,0,0,3.8-91.23L382.18,222.3Z"/><path class="a1fbf8ec-1857-4aa1-999b-2420d9cfa815" d="M349.5,224.62c-.47,5.58-1.17,11.1-2.92,12a4.19,4.19,0,0,1-1.84.43v21.48l35.5,11.64,1.94-47.89Z"/><path class="a1fbf8ec-1857-4aa1-999b-2420d9cfa815" d="M350,218.59c-.08,1-.16,2-.24,3.06l32.56-2.23,6.94-171A243.61,243.61,0,0,0,344.74,24V208.84C347.27,211,350.31,214.51,350,218.59Z"/><path class="b6ec679c-fe8e-42c4-af58-7053a43b1446" d="M298.57,354.11s10.25,10.71,10.29,11.86c30.62,21.27,89.34,49.23,111.9,59.7q5.87-5.71,11.37-11.81c-26.32-12.6-95.91-45.39-135.52-64.05A16.68,16.68,0,0,1,298.57,354.11Z"/><path class="b6ec679c-fe8e-42c4-af58-7053a43b1446" d="M227.91,322a8.64,8.64,0,0,1,3.28-4.35c-4.92-5.56-11.52-24.38-11.52-24.38-5.27-.31-7.91-11.63-7.91-11.63C195.32,284,177,276.83,177,276.83s-7.29.31-7-5.27-5.17-7.66-5.17-7.66c-.27.8-.48,1.49-.65,2.07.8,3.47,1.27,5.93,1.27,5.93,1.77,4.08,6.38,12.27,8.91,14.4s2.33,7.1,2.33,7.1c6.32,5.29.87,16.13.87,16.13s5.93,1.36,0,3.11-20.4,1.17-20.4,1.17-7-6.42-8.95-12.54S146.82,283,146.82,283c-7.78-4.1-8-18.82-11.48-21.94s-.69-3.65-2.6-7.64.87-10.07-2.6-11.8-2.61-18.23-2.61-18.23C126,225,124.12,220,123.25,213.3L10.31,199.09A246,246,0,0,0,5,250C5,385.31,114.69,495,250,495a243.77,243.77,0,0,0,134.34-40.11c-29.39-23.07-112-92.72-112-92.72S225.8,329.85,227.91,322ZM62.38,293.54l-.75-2.11,84.78,4.22,1.51,4.32Z"/><path class="b6ec679c-fe8e-42c4-af58-7053a43b1446" d="M170.94,307.71a8.05,8.05,0,0,1-1.58-2.16A3.31,3.31,0,0,0,170.94,307.71Z"/><path class="b6ec679c-fe8e-42c4-af58-7053a43b1446" d="M153,219.14c4.38,2.36,0,9.23,1.07,10.77s-2.49,6.75.59,7.34a2,2,0,0,1,1.43,1.16c.54-6.06,1.3-12.55,2.1-13.11.62-.43,1-3.69,1.15-7.45l-4.76-.6C153.71,218.35,153,219.14,153,219.14Z"/><path class="b6ec679c-fe8e-42c4-af58-7053a43b1446" d="M488.63,305.74,380.24,270.19l-35.5-11.64-85.9-28.18L248,229c.65.77,1.2,1.36,1.2,1.36s11.54,11.11,17.08,24.3S287,284,287,284a1.47,1.47,0,0,1,2.22-.85c2.36,1.54,6.31,4.65,6.36,8.16.08,5,11.33,6.31,15.83,13.3s15.7,16.71,15.7,16.71a37.48,37.48,0,0,1,1.64,11.38l0,0s14.12,4.83,15.73,13.77c5.08,0,10.56,5.76,10.56,5.76l-1.37,1.69h0s37.49,23.27,63.93,29.22c9.18,2.06,20.84,5.34,32.14,8.73A243.87,243.87,0,0,0,488.63,305.74Z"/><path class="b151825a-ce24-42d2-b4e4-f68bb9fc93b0" d="M353.71,353.9h0l-12,14.77c-5-1.42-9.15-7.21-9.15-7.21-5.9-3.39-21.09-16-21.09-16l.81-.6a11.21,11.21,0,0,1-3.45-.3c-4.7-1.32-24.05-15.59-31.45-22.77a18.61,18.61,0,0,1,4.65,8.74c3.89,3,11.12,13.17,14.6,19.32,39.61,18.66,109.2,51.45,135.52,64.05a244.64,244.64,0,0,0,17.65-22c-11.3-3.39-23-6.67-32.14-8.73C391.2,377.17,353.71,353.9,353.71,353.9Z"/><path class="b151825a-ce24-42d2-b4e4-f68bb9fc93b0" d="M308.86,366c0,1.14-13.13,12.66-13.13,12.66l-19.11-17.76h0c-9.16-5.74-20.35-17.67-20.35-17.67-15.82-2.95-24.35-24.81-24.35-24.81a8.76,8.76,0,0,1-.73-.75,8.64,8.64,0,0,0-3.28,4.35c-2.11,7.85,44.41,40.17,44.41,40.17s82.63,69.65,112,92.72a246.11,246.11,0,0,0,36.42-29.22c-22.56-10.47-81.28-38.43-111.9-59.7Z"/><path class="ad0be220-d5e0-48d2-a605-6132f9e16221" d="M230.54,111.76c3.24,5.89,10.3,19.18,12.14,26.08,2.07,7.81,3.95,13.28,3.43,22.24.55.66.88,1,.88,1s15.52,12.18,26,13.06c0,0,9.59,9.07,15.14,7.32,0,0,6.75,11.75,15.67,15.13,8.33,3.15,5,17.28,15.53,22.91l4-13.62,14.94-2.41,2.07,1.9a4.56,4.56,0,0,1,.84.26,7.31,7.31,0,0,0-1-6.42c-2.26-2.95-12.85-14.93-16.32-16,0,0,1.22-9.2-3.3-10.24s-10.76-15.28-15.44-17.53-12.33-17.19-26.39-19.27S267.43,131,267.43,131s-4.16-10.58-15.27-12.49-7.29-9-17.53-9.72c-1.71-.12-3-.2-4-.24A5.54,5.54,0,0,1,230.54,111.76Z"/><path class="a51c44d3-9b9e-4fbe-8411-d96d277af773" d="M297.44,362.17s-5,2.86-14,1.66a18.74,18.74,0,0,1-6.85-2.95h0l19.11,17.76S308.9,367.12,308.86,366h0c0-1.15-10.29-11.86-10.29-11.86C299,357.25,297.44,362.17,297.44,362.17Z"/><path d="M268.68,343.21c-5.74,5-12.41,0-12.41,0s11.19,11.93,20.35,17.67a18.74,18.74,0,0,0,6.85,2.95c9,1.2,14-1.66,14-1.66s1.58-4.92,1.13-8.06a16.68,16.68,0,0,0-2-4.3c-3.48-6.15-10.71-16.36-14.6-19.32C283.42,336.29,274.42,338.25,268.68,343.21Z"/><path class="b1be97ad-e59c-40ef-a910-065e4242f5e6" d="M254.29,277.36l-5.07-3-1.34-14.15s-10.49-22.71-20-25.45h0a42.89,42.89,0,0,1-8.32.54c-8.29-.61-19.8-4.76-34.84,1.53-11.31,4.73-17.49,19.86-19.87,27.09,0,0,5.5,2.08,5.17,7.66s7,5.27,7,5.27,18.3,7.14,34.74,4.81c0,0,2.64,11.32,7.91,11.63,0,0,6.6,18.82,11.52,24.38a8.76,8.76,0,0,0,.73.75s8.53,21.86,24.35,24.81c0,0,6.67,5,12.41,0s14.74-6.92,13.33-12.72a18.61,18.61,0,0,0-4.65-8.74l-.05-.06C270,314.52,254.29,277.36,254.29,277.36Z"/><path class="a649f3c7-0c27-47ce-93d1-45219f735495" d="M208.49,124.47c1,.8,2,1.56,3,2.24l-1.19-1.82A10.57,10.57,0,0,1,208.49,124.47Z"/><path class="a649f3c7-0c27-47ce-93d1-45219f735495" d="M242.93,214.87c-1.69-3.53-8.75-11.82-8.75-11.82s10-26.71,11.51-38.5c.21-1.59.34-3.07.42-4.47.52-9-1.36-14.43-3.43-22.24-1.84-6.9-8.9-20.19-12.14-26.08a10.78,10.78,0,0,1-1.35,2.74c-5.24,7.87-17.67,12.21-17.67,12.21s-32.06,0-37.61-.92c-3.66-.61-8.57-1.48-11.53-3.29l-10.5,15.69-.57,4.82s3.3-.35,8.33,5,10.42,30.38,10.42,30.38-2.78,2.78-3.47,12.15c-.52,7-4.76,13.71-7,17.67,0,2.48-.06,6.24-.24,9.61-.19,3.76-.53,7-1.15,7.45-.8.56-1.56,7-2.1,13.11,1,2,.07,5.94.07,5.94,3.45,3.56,6.45,14.65,8.07,21.62.17-.58.38-1.27.65-2.07,2.38-7.23,8.56-22.36,19.87-27.09,15-6.29,26.55-2.14,34.84-1.53a42.89,42.89,0,0,0,8.32-.54l21.3-4.37s-.55-.59-1.2-1.36a19.2,19.2,0,0,1-1.81-2.48C245.34,225,244.62,218.4,242.93,214.87Z"/><path class="b1be97ad-e59c-40ef-a910-065e4242f5e6" d="M156.1,238.41a2,2,0,0,0-1.43-1.16c-3.08-.59.47-5.8-.59-7.34s3.31-8.41-1.07-10.77c0,0,.7-.79,1.58-1.89,1.45-1.82,3.41-4.5,3.63-6.05a11.18,11.18,0,0,1,1.37-3c2.24-4,6.48-10.65,7-17.67.69-9.37,3.47-12.15,3.47-12.15s-5.38-25-10.42-30.38-8.33-5-8.33-5-2.77,6.42-11.28,5.55c0,0-8.51,34.89-14.41,43.57-3.09,4.54-3.32,13.84-2.37,21.17.87,6.68,2.71,11.73,4.28,10.07,0,0-.86,16.49,2.61,18.23s.69,7.81,2.6,11.8-.87,4.51,2.6,7.64S139,278.88,146.82,283l.29-4.65,11.66-8.26,6.74,1.83s-.47-2.46-1.27-5.93c-1.62-7-4.62-18.06-8.07-21.62C156.17,244.35,157.11,240.44,156.1,238.41Z"/><path class="a51c44d3-9b9e-4fbe-8411-d96d277af773" d="M332.54,361.46s4.11,5.79,9.15,7.21l12-14.77,1.37-1.69s-5.48-5.77-10.56-5.76C346.13,355.38,338.44,364.86,332.54,361.46Z"/><path d="M327.11,338.11c-3,3.9-9.81,6.47-14.85,6.71l-.81.6s15.19,12.65,21.09,16,13.59-6.08,12-15-15.73-13.77-15.73-13.77l0,0A9.71,9.71,0,0,1,327.11,338.11Z"/><path class="ad0be220-d5e0-48d2-a605-6132f9e16221" d="M227.92,234.74h0c9.48,2.74,20,25.45,20,25.45l1.34,14.15,5.07,3s15.66,37.16,23,44.33l.05.06c7.4,7.18,26.75,21.45,31.45,22.77a11.21,11.21,0,0,0,3.45.3c5-.24,11.85-2.81,14.85-6.71a9.71,9.71,0,0,0,1.64-5.41,37.48,37.48,0,0,0-1.64-11.38s-11.2-9.72-15.7-16.71-15.75-8.29-15.83-13.3c-.05-3.51-4-6.62-6.36-8.16A1.47,1.47,0,0,0,287,284s-15.16-16.13-20.7-29.33-17.08-24.3-17.08-24.3Z"/><path class="f3365eb9-a47f-40ba-9966-95610fceb213" d="M349.74,221.65c-.08,1-.15,2-.24,3l32.68-2.32,110.25-7.79c-.12-.87-.25-1.73-.38-2.59l-109.75,7.5Z"/><path d="M147.11,278.33l-.29,4.65s-.49,12.17,1.45,18.29,8.95,12.54,8.95,12.54,14.48.58,20.4-1.17,0-3.11,0-3.11a7.54,7.54,0,0,1-6.68-1.82,3.31,3.31,0,0,1-1.58-2.16c-2.74-5.4,1.07-17.44,7.39-12.15,0,0,.19-5-2.33-7.1s-7.14-10.32-8.91-14.4l-6.74-1.83Z"/><path class="f3365eb9-a47f-40ba-9966-95610fceb213" d="M169.36,305.55a8.05,8.05,0,0,0,1.58,2.16,7.54,7.54,0,0,0,6.68,1.82s5.45-10.84-.87-16.13S166.62,300.15,169.36,305.55Z"/><path class="f3365eb9-a47f-40ba-9966-95610fceb213" d="M324.49,232.33c.35-2.41-.64-9-2.76-10.48s-2.4-2.31-2.4-2.31-4.26,2.24-3.34,6.7a21.37,21.37,0,0,0,3.86,7.65C321.12,232.74,324.18,234.41,324.49,232.33Z"/><path class="ad0be220-d5e0-48d2-a605-6132f9e16221" d="M215.19,123.62a6,6,0,0,1-4.86,1.27l1.19,1.82s12.43-4.34,17.67-12.21a10.78,10.78,0,0,0,1.35-2.74,5.54,5.54,0,0,0,.11-3.18c-.93-3.32-5.13-4.54-5.13-4.54h0C223.33,110.78,219.74,119.74,215.19,123.62Z"/><polygon class="f3365eb9-a47f-40ba-9966-95610fceb213" points="61.63 291.43 62.38 293.54 147.92 299.97 146.41 295.65 61.63 291.43"/><path d="M323.35,205.92l-4,13.62h0s.27.82,2.4,2.31,3.11,8.07,2.76,10.48c-.31,2.08-3.37.41-4.64,1.56a1.55,1.55,0,0,0-.46.77c-.71,2.55,5.38,6,9.4,7s2.21-7.29,4.9-4.59,5.24-3.48,5.45-2.21c.17,1,3.16,2.3,5.6,2.2a4.19,4.19,0,0,0,1.84-.43c1.75-.92,2.45-6.44,2.92-12,.09-1,.16-2,.24-3s.16-2.09.24-3.06c.33-4.08-2.71-7.58-5.24-9.75a25.84,25.84,0,0,0-3.21-2.36l-1.17-1.07-2.07-1.9Z"/><path d="M162.53,108.66a15.66,15.66,0,0,0,.43-2.15c.89-6.9,9-5.25,11.55-3.93,1.43-.44,2.59-.41,3.33.52,2.2,2.78,9.32,4.38,12.69,4.42h0a4.39,4.39,0,0,1-.3-1c-.57-4.41.72-10.84.72-10.84l.64-.2c-6.17-4.07-10.92-12.08-10.92-12.08v-6.1c-1.91.56-4,.31-7.24-.3a3.83,3.83,0,0,1-2-1.06l-.82.51s-4.47,4.19-.93,8.83,3.8,8.4.36,8.9-13.82,0-13.73,7.61S158,112.06,158,112.06a2.79,2.79,0,0,0,1.83.15A5.77,5.77,0,0,1,162.53,108.66Z"/><path class="b1be97ad-e59c-40ef-a910-065e4242f5e6" d="M211.52,126.71c-1-.68-2-1.44-3-2.24-7.38-2.39-16.2-12.66-18-17h0c-3.37,0-10.49-1.64-12.69-4.42-.74-.93-1.9-1-3.33-.52-2.82.88-6.68,3.65-10.44,5.27a11,11,0,0,0-1.54.81,5.77,5.77,0,0,0-2.68,3.55c-.51,2-.13,4.23-.07,6.63,0,1.54,1.07,2.73,2.6,3.66,3,1.81,7.87,2.68,11.53,3.29C179.46,126.71,211.52,126.71,211.52,126.71Z"/><path class="b50bbec4-40dd-4deb-8638-6f29596059dd" d="M220.85,93.43a3.85,3.85,0,0,0-2-.75c-2.48-.09-4.6,4.79-4.6,4.79s-.64,2.67-4.23,3.49c-2.57.59-4.57-.37-8.47-1.74-1.55-.54-3.4-1.15-5.7-1.75A13.6,13.6,0,0,1,192.41,96l-.66-.41-.16-.11-.64.2s-1.29,6.43-.72,10.84a4.39,4.39,0,0,0,.3,1h0c1.76,4.29,10.58,14.56,18,17a10.57,10.57,0,0,0,1.84.42,6,6,0,0,0,4.86-1.27c4.55-3.88,8.14-12.84,10.33-19.58,1.54-4.74,2.39-8.37,2.39-8.37h0a6.87,6.87,0,0,1-2.43.61C223.84,96.27,222.43,94.48,220.85,93.43Zm-.35,16.81-1-.06-1-.16-.54-.08-.31.09-.33-.1-.59,0-2.33-.08-2.61-.22h.08c.78-.06,5.22-.38,5.47-.52,0,0,.34.31.57,0l3.43,1Z"/><path class="a9788aa1-85b3-4ba6-9088-ec4e36cf085d" d="M220.85,93.43a3.85,3.85,0,0,0-2-.75c-2.48-.09-4.6,4.79-4.6,4.79s-.64,2.67-4.23,3.49c-2.57.59-4.57-.37-8.47-1.74-1.55-.54-3.4-1.15-5.7-1.75A13.6,13.6,0,0,1,192.41,96l-.66-.41-.16-.11-.64.2s-1.29,6.43-.72,10.84a4.39,4.39,0,0,0,.3,1h0c1.76,4.29,10.58,14.56,18,17a10.57,10.57,0,0,0,1.84.42,6,6,0,0,0,4.86-1.27c4.55-3.88,8.14-12.84,10.33-19.58,1.54-4.74,2.39-8.37,2.39-8.37h0a6.87,6.87,0,0,1-2.43.61C223.84,96.27,222.43,94.48,220.85,93.43Zm-.35,16.81-1-.06-1-.16-.54-.08-.31.09-.33-.1-.59,0-2.33-.08-2.61-.22h.08c.78-.06,5.22-.38,5.47-.52,0,0,.34.31.57,0l3.43,1Z"/><path class="a2eb9b7f-a14e-45f7-be80-74af4c56362d" d="M213.16,66.31,201.55,99.22c3.9,1.37,5.9,2.33,8.47,1.74,3.59-.82,4.23-3.49,4.23-3.49s2.12-4.88,4.6-4.79a3.85,3.85,0,0,1,2,.75l8.8-28.13-.13-.09h0A53,53,0,0,0,213.16,66.31Z"/><path class="a2eb9b7f-a14e-45f7-be80-74af4c56362d" d="M225.48,96.27a6.87,6.87,0,0,0,2.43-.61,26.92,26.92,0,0,0,4-2.15,137.28,137.28,0,0,0,.71-14.25Z"/><path class="a2eb9b7f-a14e-45f7-be80-74af4c56362d" d="M192.41,96,202.6,68.67c-8.09,1.63-14.37,2.73-17.64,5.84a10.67,10.67,0,0,1-4.29,2.78v6.1s4.75,8,10.92,12.08l.16.11Z"/><path class="b6ec679c-fe8e-42c4-af58-7053a43b1446" d="M192.41,96a13.6,13.6,0,0,0,3.44,1.48c2.3.6,4.15,1.21,5.7,1.75l11.61-32.91c-.6.13-1.21.27-1.83.43-3.08.77-6,1.38-8.73,1.93Z"/><path class="a649f3c7-0c27-47ce-93d1-45219f735495" d="M180.67,77.29A10.67,10.67,0,0,0,185,74.51c3.27-3.11,9.55-4.21,17.64-5.84,2.72-.55,5.65-1.16,8.73-1.93.62-.16,1.23-.3,1.83-.43a53,53,0,0,1,16.35-1.11l.2,0a1.41,1.41,0,0,0,1.48-1.86c-.93-2.68-2.72-7.63-5.26-13.94a33.86,33.86,0,0,0-4.54-7.76c-6-7.8-16.32-14.89-28.66-11.9C176.25,33.77,172,49,170.37,54.26c-1.23,3.94-.49,14.29,0,19.34A3.87,3.87,0,0,0,173.43,77C176.66,77.6,178.76,77.85,180.67,77.29Z"/><path class="f09028c2-a470-4546-bac7-bb0c90aa04db" d="M217.32,109.15c-.25.14-4.69.46-5.47.52h-.08l2.61.22,2.33.08.59,0,.33.1.31-.09.54.08,1,.16,1,.06.82,0-3.43-1C217.66,109.46,217.32,109.15,217.32,109.15Z"/><path class="b6ec679c-fe8e-42c4-af58-7053a43b1446" d="M220.85,93.43c1.58,1,3,2.84,4.63,2.84l7.17-17h0c0-6.14-.7-12.29-3-14Z"/><path d="M222.07,94.38a23.34,23.34,0,0,1,1.71,3.05,20.19,20.19,0,0,1,1.25,3.28,4.23,4.23,0,0,1,.16,1.94,2.92,2.92,0,0,1-1.15,1.63,5,5,0,0,1-3.47.87,7.08,7.08,0,0,0,2.93-1.53,2.23,2.23,0,0,0,.74-1.18,4.23,4.23,0,0,0-.16-1.48C223.51,98.79,222.68,96.62,222.07,94.38Z"/><path d="M219.39,104a2.67,2.67,0,0,0-1.35-.92,3.92,3.92,0,0,0-1.66.33,2,2,0,0,1,.73-.63,1.82,1.82,0,0,1,1-.2,1.47,1.47,0,0,1,.9.54A1.94,1.94,0,0,1,219.39,104Z"/><path d="M219.6,105.15c-.08.46-.21.9-.32,1.34l-.17.64a3.08,3.08,0,0,0-.11.6v.14l-.09.06a2.79,2.79,0,0,1-1.2.57.87.87,0,0,1-.39,0,.43.43,0,0,1-.27-.32,1.07,1.07,0,0,1,.11-.65,1.26,1.26,0,0,0,.11.57c.07.13.18.12.36.06a4.32,4.32,0,0,0,1-.6l-.09.21a2.71,2.71,0,0,1,.14-.75c.08-.22.16-.44.26-.65A6.54,6.54,0,0,1,219.6,105.15Z"/><path class="f09028c2-a470-4546-bac7-bb0c90aa04db" d="M211.73,109.68h.12c.78-.06,5.22-.38,5.47-.52,0,0,.34.31.57,0l3.43,1-.82,0-1-.06-1-.16-.54-.08-.31.09-.33-.1-.59,0-2.33-.08-2.61-.22"/><path d="M210.94,109.58c1.06.09,2.12.13,3.18.16l3.18.07h0a1,1,0,0,0,.32.05,2,2,0,0,0,.34-.05h.05c.63.13,1.26.24,1.89.31.32,0,.64.06,1,.06a1.59,1.59,0,0,0,.91-.21,1.61,1.61,0,0,1-.91.29,5.24,5.24,0,0,1-1,0A15.26,15.26,0,0,1,218,110h0a2.57,2.57,0,0,1-.4.06,1.07,1.07,0,0,1-.42-.06h.05c-1.06,0-2.13,0-3.19-.1A28.23,28.23,0,0,1,210.94,109.58Z"/><path class="bc344334-379b-4a1a-9c7f-176561141c27" d="M213.92,111.22c1.05.21,1.92.39,2.86.49.45.06.92.08,1.38.1a5.6,5.6,0,0,0,1.44-.12,2.22,2.22,0,0,1-1.34.89,4.32,4.32,0,0,1-1.6.12A3.91,3.91,0,0,1,213.92,111.22Z"/><path d="M250,12a238.07,238.07,0,0,1,92.64,457.3A238.06,238.06,0,0,1,157.36,30.7,236.51,236.51,0,0,1,250,12m0-7C114.69,5,5,114.69,5,250S114.69,495,250,495,495,385.31,495,250,385.31,5,250,5Z"/></g></svg>