<svg xmlns="http://www.w3.org/2000/svg" xmlns:xlink="http://www.w3.org/1999/xlink" viewBox="0 0 500 500"><defs><style>.ba6e91f7-5707-434d-9ac7-2738dbb15b22{isolation:isolate;}.b0beb7ea-a6b4-4631-8265-e2383577296f{fill:url(#ffb781b7-a8a7-4963-8e85-c29ba804d27e);}.bbe45bc4-767a-4aa2-98a6-70edbaa61791{fill:#595891;}.ea22af95-8b3f-4905-bd19-907652d16dda{fill:url(#a4b988bc-4369-4957-8343-5381ab19f739);}.f76b9f5e-7e8a-491f-aaac-dd85ec0ecec3{fill:url(#e53a2f03-cbcf-4548-855f-347fe6909120);}.fad43e3a-3834-4c6a-b33d-facbe3a69a54{fill:#f8fcff;}.af77471e-d47a-4ab0-8fdd-17ad8e996d81{fill:url(#bc7d166b-478d-422f-9d7c-81a67af328d5);}.a49040e4-e65f-402e-8fc3-7f5aa5543f58{fill:url(#b5f41658-2de5-4e06-b957-b5d41f279410);}.b0cc0710-d564-4404-8ce0-06843c6f4209{fill:url(#bf751a00-7d50-40da-8586-d1e0740502ec);}.b092942c-405b-4401-8ee5-4b2aa09eb127{fill:#793100;}.a274bc08-61ca-400e-b9a8-9757dcf68c99{fill:#592501;}.a6f45540-aee3-454b-b0c2-2187a222d0d5{fill:#fafeff;}.a4c9897b-fda8-4522-ab08-4c0fc603cb43{opacity:0.47;mix-blend-mode:darken;fill:url(#e17d403c-be56-42d3-bac8-e81652c6efd7);}.fcc9d17b-6e54-4062-bf88-004f04a77c66{fill:#4c4c4c;}.a9588956-3c43-49a8-b199-9f9dc9397ca4{fill:#5c1200;}.a100aa07-c36d-4de5-9b58-ebf720dc13ee{fill:url(#acf23970-ffd9-4a38-ac2c-201f21b6fd3e);}.e68d6303-2810-480e-92d7-ff52c94a1b41{fill:#7f7def;mix-blend-mode:multiply;}.a245a375-d78d-4a55-a725-66c9bdac0cc5{fill:#913633;}.b5b4ab6a-31c3-400a-bce8-074259503b7f{fill:#b55244;}.ec635fcf-d54b-47ac-8d28-af34f44d0878{fill:#babddd;}</style><linearGradient id="ffb781b7-a8a7-4963-8e85-c29ba804d27e" x1="340.4" y1="-89.66" x2="228.76" y2="228.51" gradientUnits="userSpaceOnUse"><stop offset="0" stop-color="#174eb8"/><stop offset="1" stop-color="#9499bb"/></linearGradient><linearGradient id="a4b988bc-4369-4957-8343-5381ab19f739" x1="398" y1="108.52" x2="480.43" y2="108.52" gradientUnits="userSpaceOnUse"><stop offset="0" stop-color="#a89fc9" stop-opacity="0.5"/><stop offset="0.11" stop-color="#b8b1d3" stop-opacity="0.41"/><stop offset="0.37" stop-color="#d7d3e6" stop-opacity="0.23"/><stop offset="0.61" stop-color="#edebf4" stop-opacity="0.1"/><stop offset="0.83" stop-color="#fafafc" stop-opacity="0.03"/><stop offset="1" stop-color="#fff" stop-opacity="0"/></linearGradient><linearGradient id="e53a2f03-cbcf-4548-855f-347fe6909120" x1="117" y1="120.27" x2="299.88" y2="120.27" xlink:href="#a4b988bc-4369-4957-8343-5381ab19f739"/><linearGradient id="bc7d166b-478d-422f-9d7c-81a67af328d5" x1="365.65" y1="69.24" x2="268.89" y2="432.09" gradientUnits="userSpaceOnUse"><stop offset="0" stop-color="#a89fc9" stop-opacity="0.8"/><stop offset="0.16" stop-color="#b8b0d3" stop-opacity="0.65"/><stop offset="0.56" stop-color="#dedbeb" stop-opacity="0.3"/><stop offset="0.85" stop-color="#f6f5f9" stop-opacity="0.08"/><stop offset="1" stop-color="#fff" stop-opacity="0"/></linearGradient><linearGradient id="b5f41658-2de5-4e06-b957-b5d41f279410" x1="326.65" y1="58.84" x2="229.89" y2="421.68" xlink:href="#bc7d166b-478d-422f-9d7c-81a67af328d5"/><linearGradient id="bf751a00-7d50-40da-8586-d1e0740502ec" x1="465.21" y1="95.79" x2="368.45" y2="458.64" xlink:href="#bc7d166b-478d-422f-9d7c-81a67af328d5"/><linearGradient id="e17d403c-be56-42d3-bac8-e81652c6efd7" x1="331.57" y1="308.43" x2="301.24" y2="467.67" gradientUnits="userSpaceOnUse"><stop offset="0" stop-color="#f7d1cf"/><stop offset="0.19" stop-color="#f9dddb" stop-opacity="0.74"/><stop offset="0.41" stop-color="#fbe9e8" stop-opacity="0.48"/><stop offset="0.6" stop-color="#fdf2f2" stop-opacity="0.27"/><stop offset="0.78" stop-color="#fef9f9" stop-opacity="0.13"/><stop offset="0.91" stop-color="#fffdfd" stop-opacity="0.03"/><stop offset="1" stop-color="#fff" stop-opacity="0"/></linearGradient><linearGradient id="acf23970-ffd9-4a38-ac2c-201f21b6fd3e" x1="121.48" y1="4.13" x2="24.72" y2="366.97" xlink:href="#bc7d166b-478d-422f-9d7c-81a67af328d5"/></defs><title>actives icon</title><g class="ba6e91f7-5707-434d-9ac7-2738dbb15b22"><g id="b8665dfb-3e68-45d1-a113-7b6c130ebaf0" data-name="Layer 3"><path class="b0beb7ea-a6b4-4631-8265-e2383577296f" d="M176,75c23.72,2.07,34.09-.76,49,5,19,7.34,31.93,23.43,41,41,0,0,5.65,7.1,12.42,15.09-1.74-14.53-3.14-24.44-3.92-26.59a35,35,0,0,0-7.93-11.91c-3.05-3.19-7.17-6-8.53-10.34a5.23,5.23,0,0,1-.24-2.68v0a5.42,5.42,0,0,1,1-1.93,17,17,0,0,1,13.5-6.23c8.29.48,14,14.29,15.18,21.14.3,1.79,3.43,23.15,7.68,52.28,4.06,2.42,8.87,5.17,14.82,8.22,14,7.19,21,10.78,26,11a26,26,0,0,0,14.22-3.39c-1.11-31.13-3.33-61.3-6.22-86.61-6-7,2-9,11-9s12,0,12,4c1.3,24.92,2.8,51.71,3.55,78.57,4.31-2.66,9.35-5.54,15.45-8.57,5.1-2.54,9.26-4.6,12.94-6.28a112.65,112.65,0,0,1,26.81-58.39A245.19,245.19,0,0,0,156,23.7c.8,16.76,1.72,33.23,2.7,49.11C165,73.86,170.85,74.55,176,75Z"/><path class="bbe45bc4-767a-4aa2-98a6-70edbaa61791" d="M398.94,137.72A69.21,69.21,0,0,1,416,132c20.09-3.72,31.73,2.31,48-1.3a245.24,245.24,0,0,0-38.27-51.37,112.65,112.65,0,0,0-26.81,58.39Z"/><path class="ea22af95-8b3f-4905-bd19-907652d16dda" d="M398.94,137.72A69.21,69.21,0,0,1,416,132c20.09-3.72,31.73,2.31,48-1.3a245.24,245.24,0,0,0-38.27-51.37,112.65,112.65,0,0,0-26.81,58.39Z"/><path class="bbe45bc4-767a-4aa2-98a6-70edbaa61791" d="M266,121c-9.07-17.57-22-33.66-41-41-14.91-5.76-25.28-2.93-49-5-5.15-.45-11-1.14-17.32-2.19,2.2,35.91,4.7,68.77,6.87,94.92A71.28,71.28,0,0,1,181,160c22.35-7.94,35.42.18,63-12,13.28-5.87,15.11-9.9,24-10a24.61,24.61,0,0,1,10.93,2.36c-.17-1.46-.34-2.89-.51-4.27C271.65,128.1,266,121,266,121Z"/><path class="f76b9f5e-7e8a-491f-aaac-dd85ec0ecec3" d="M266,121c-9.07-17.57-22-33.66-41-41-14.91-5.76-25.28-2.93-49-5-5.15-.45-11-1.14-17.32-2.19,2.2,35.91,4.7,68.77,6.87,94.92A71.28,71.28,0,0,1,181,160c22.35-7.94,35.42.18,63-12,13.28-5.87,15.11-9.9,24-10a24.61,24.61,0,0,1,10.93,2.36c-.17-1.46-.34-2.89-.51-4.27C271.65,128.1,266,121,266,121Z"/><path class="fad43e3a-3834-4c6a-b33d-facbe3a69a54" d="M350.22,165.61A26,26,0,0,1,336,169c-5-.22-12-3.81-26-11-5.95-3.05-10.76-5.8-14.82-8.22C305.06,217.4,321,326.84,321.49,330.4A50.33,50.33,0,0,1,333,332a46.88,46.88,0,0,1,10.45,4.18A1087.55,1087.55,0,0,0,351,211C351,195.94,350.76,180.66,350.22,165.61Z"/><path class="af77471e-d47a-4ab0-8fdd-17ad8e996d81" d="M350.22,165.61A26,26,0,0,1,336,169c-5-.22-12-3.81-26-11-5.95-3.05-10.76-5.8-14.82-8.22C305.06,217.4,321,326.84,321.49,330.4A50.33,50.33,0,0,1,333,332a46.88,46.88,0,0,1,10.45,4.18A1087.55,1087.55,0,0,0,351,211C351,195.94,350.76,180.66,350.22,165.61Z"/><path class="fad43e3a-3834-4c6a-b33d-facbe3a69a54" d="M235,334c12.93,1.67,17.37,10.71,33,10,12.63-.57,15.07-6.72,30.49-10.63-.44-4.61-12.46-132.41-19.56-193A24.61,24.61,0,0,0,268,138c-8.89.1-10.72,4.13-24,10-27.58,12.18-40.65,4.06-63,12a71.28,71.28,0,0,0-15.45,7.73C168.6,204.5,171,228,171,228l16,62,9,26-11,14s-36,6-39-4-23,23-23,23-36,3-43,4c-1.9.27-5,2.31-8.63,5.13C61.75,365.72,49,379,49,379H41.69q3.93,6.33,8.21,12.39c11.94-1.87,26.91-7.77,37.37-12.39L100,373l17,28,23-4v14l-12,13H94L67.17,413.07a245,245,0,0,0,364.14,1.7C347.44,404,180,368,180,368,204.85,337.67,222.78,332.42,235,334Z"/><path class="a49040e4-e65f-402e-8fc3-7f5aa5543f58" d="M235,334c12.93,1.67,17.37,10.71,33,10,12.63-.57,15.07-6.72,30.49-10.63-.44-4.61-12.46-132.41-19.56-193A24.61,24.61,0,0,0,268,138c-8.89.1-10.72,4.13-24,10-27.58,12.18-40.65,4.06-63,12a71.28,71.28,0,0,0-15.45,7.73C168.6,204.5,171,228,171,228l16,62,9,26-11,14s-36,6-39-4-23,23-23,23-36,3-43,4c-1.9.27-5,2.31-8.63,5.13C61.75,365.72,49,379,49,379H41.69q3.93,6.33,8.21,12.39c11.94-1.87,26.91-7.77,37.37-12.39L100,373l17,28,23-4v14l-12,13H94L67.17,413.07a245,245,0,0,0,364.14,1.7C347.44,404,180,368,180,368,204.85,337.67,222.78,332.42,235,334Z"/><path class="fad43e3a-3834-4c6a-b33d-facbe3a69a54" d="M464,130.7c-16.29,3.61-27.93-2.42-48,1.3a69.21,69.21,0,0,0-17.06,5.72c-3.68,1.68-7.84,3.74-12.94,6.28-6.1,3-11.14,5.91-15.45,8.57q.34,12.74.45,25.43c.37,56.41-1.41,110.05-4.71,160.62,3.82-.85,7.23-1.9,11.71-1.62,15.58,1,22.3,16.67,34,27,8.5,7.5,22.36,14.58,46.38,14.88A245.14,245.14,0,0,0,464,130.7Z"/><path class="b0cc0710-d564-4404-8ce0-06843c6f4209" d="M464,130.7c-16.29,3.61-27.93-2.42-48,1.3a69.21,69.21,0,0,0-17.06,5.72c-3.68,1.68-7.84,3.74-12.94,6.28-6.1,3-11.14,5.91-15.45,8.57q.34,12.74.45,25.43c.37,56.41-1.41,110.05-4.71,160.62,3.82-.85,7.23-1.9,11.71-1.62,15.58,1,22.3,16.67,34,27,8.5,7.5,22.36,14.58,46.38,14.88A245.14,245.14,0,0,0,464,130.7Z"/><path class="b092942c-405b-4401-8ee5-4b2aa09eb127" d="M295.18,149.78c-4.25-29.13-7.38-50.49-7.68-52.28-1.14-6.85-6.89-20.66-15.18-21.14a17,17,0,0,0-13.5,6.23,5.42,5.42,0,0,0-1,1.93v0a5.23,5.23,0,0,0,.24,2.68c1.36,4.37,5.48,7.15,8.53,10.34a35,35,0,0,1,7.93,11.91c.78,2.15,2.18,12.06,3.92,26.59.17,1.38.34,2.81.51,4.27,7.1,60.6,19.12,188.4,19.56,193,1.95-.5,4.1-1,6.51-1.37a84.48,84.48,0,0,1,16.49-1.6C321,326.84,305.06,217.4,295.18,149.78Z"/><path class="b092942c-405b-4401-8ee5-4b2aa09eb127" d="M356,86s-6,0-12-7c2.89,25.31,5.11,55.48,6.22,86.61.54,15,.82,30.33.78,45.39a1087.55,1087.55,0,0,1-7.55,125.18A29.87,29.87,0,0,0,352,339a33.46,33.46,0,0,0,14.29-.38c3.3-50.57,5.08-104.21,4.71-160.62q-.09-12.67-.45-25.43C369.8,125.71,368.3,98.92,367,74,367,78,366,83,356,86Z"/><path class="a274bc08-61ca-400e-b9a8-9757dcf68c99" d="M356,86c10-3,11-8,11-12s-3-4-12-4-17,2-11,9S356,86,356,86Z"/><path class="a6f45540-aee3-454b-b0c2-2187a222d0d5" d="M378,337c-4.48-.28-7.89.77-11.71,1.62A33.46,33.46,0,0,1,352,339a29.87,29.87,0,0,1-8.55-2.82A46.88,46.88,0,0,0,333,332a50.33,50.33,0,0,0-11.51-1.6A84.48,84.48,0,0,0,305,332c-2.41.41-4.56.87-6.51,1.37C283.07,337.28,280.63,343.43,268,344c-15.63.71-20.07-8.33-33-10-12.22-1.58-30.15,3.67-55,34,0,0,167.44,36,251.31,46.77a245.81,245.81,0,0,0,27.07-35.89c-24-.3-37.88-7.38-46.38-14.88C400.3,353.67,393.58,338,378,337Z"/><path class="a4c9897b-fda8-4522-ab08-4c0fc603cb43" d="M378,337c-4.48-.28-7.89.77-11.71,1.62A33.46,33.46,0,0,1,352,339a29.87,29.87,0,0,1-8.55-2.82A46.88,46.88,0,0,0,333,332a50.33,50.33,0,0,0-11.51-1.6A84.48,84.48,0,0,0,305,332c-2.41.41-4.56.87-6.51,1.37C283.07,337.28,280.63,343.43,268,344c-15.63.71-20.07-8.33-33-10-12.22-1.58-30.15,3.67-55,34,0,0,167.44,36,251.31,46.77a245.81,245.81,0,0,0,27.07-35.89c-24-.3-37.88-7.38-46.38-14.88C400.3,353.67,393.58,338,378,337Z"/><path class="fcc9d17b-6e54-4062-bf88-004f04a77c66" d="M128,424l12-13v-6.9l-23.44,8L87.26,379h0c-10.46,4.62-25.43,10.52-37.37,12.39a245.68,245.68,0,0,0,17.27,21.68L94,424Z"/><path class="a9588956-3c43-49a8-b199-9f9dc9397ca4" d="M71.37,82.34A244.14,244.14,0,0,0,5,250c0,7.18.33,14.28.93,21.3l65.44-38.22Z"/><path class="fad43e3a-3834-4c6a-b33d-facbe3a69a54" d="M71.37,358.13v-125L5.93,271.3A243.68,243.68,0,0,0,41.69,379H49S61.75,365.72,71.37,358.13Z"/><path class="a100aa07-c36d-4de5-9b58-ebf720dc13ee" d="M71.37,358.13v-125L5.93,271.3A243.68,243.68,0,0,0,41.69,379H49S61.75,365.72,71.37,358.13Z"/><path class="a9588956-3c43-49a8-b199-9f9dc9397ca4" d="M71.37,358.13v-125L5.93,271.3A243.68,243.68,0,0,0,41.69,379H49S61.75,365.72,71.37,358.13Z"/><path class="e68d6303-2810-480e-92d7-ff52c94a1b41" d="M71.37,82.34A244.14,244.14,0,0,0,5,250c0,7.18.33,14.28.93,21.3l65.44-38.22Z"/><path class="e68d6303-2810-480e-92d7-ff52c94a1b41" d="M71.37,358.13v-125L5.93,271.3A243.68,243.68,0,0,0,41.69,379H49S61.75,365.72,71.37,358.13Z"/><path class="a245a375-d78d-4a55-a725-66c9bdac0cc5" d="M71.37,358.13C75,355.31,78.1,353.27,80,353c7-1,43-4,43-4V40.45A246.28,246.28,0,0,0,71.37,82.34V358.13Z"/><path class="e68d6303-2810-480e-92d7-ff52c94a1b41" d="M71.37,358.13C75,355.31,78.1,353.27,80,353c7-1,43-4,43-4V40.45A246.28,246.28,0,0,0,71.37,82.34V358.13Z"/><path class="b5b4ab6a-31c3-400a-bce8-074259503b7f" d="M123,349s20-33,23-23,39,4,39,4l11-14-9-26-16-62s-2.4-23.5-5.45-60.27c-2.17-26.15-4.67-59-6.87-94.92-1-15.88-1.9-32.35-2.7-49.11a244.22,244.22,0,0,0-33,16.75Z"/><path class="e68d6303-2810-480e-92d7-ff52c94a1b41" d="M123,349s20-33,23-23,39,4,39,4l11-14-9-26-16-62s-2.4-23.5-5.45-60.27c-2.17-26.15-4.67-59-6.87-94.92-1-15.88-1.9-32.35-2.7-49.11a244.22,244.22,0,0,0-33,16.75Z"/><polygon class="ec635fcf-d54b-47ac-8d28-af34f44d0878" points="116.56 412.13 140 404.1 140 397 117 401 100 373 87.27 379 87.27 379 116.56 412.13"/><path d="M250,12a238.07,238.07,0,0,1,92.64,457.3A238.06,238.06,0,0,1,157.36,30.7,236.51,236.51,0,0,1,250,12m0-7C114.69,5,5,114.69,5,250S114.69,495,250,495,495,385.31,495,250,385.31,5,250,5Z"/></g></g></svg>