<svg xmlns="http://www.w3.org/2000/svg" viewBox="0 0 500 500"><defs><style>.a37b5ca1-9861-494f-9336-64c41d26bfc9{fill:#c0f6fc;}.f8efe0bc-b526-49f4-a3cf-bc9b72fa9cac{fill:#5b5b5b;}.bbd139f6-f33c-4173-b2b5-770c5f313603{fill:#fff;}.be807dea-70e4-40c8-957e-513e51a011d1{fill:#b6d6f2;}.b11f3fdb-4645-414c-a6ba-35dc13ac53da{fill:#f7f7f7;}.be860974-5b6f-40a0-aacc-daa2366311f4{fill:#2b2b2b;}.e94f491f-465a-4d60-a7f8-407eadc71d67{fill:#ff3939;}.a64e579c-5d40-412c-a789-b9da2b296445{fill:#a5a5a5;}.ee530578-5e7e-478a-a663-ce9f165cdb6b{fill:#2d2d2d;}.b820f4b5-f98f-4d63-a8ce-59c31b6b86ac,.bf3e59bd-3239-4c3d-92f2-bfdd04dd8b02{fill:none;stroke:#000;stroke-miterlimit:10;}.b820f4b5-f98f-4d63-a8ce-59c31b6b86ac{stroke-width:2px;}</style></defs><title>actives icon</title><g id="bab7d0a5-7839-4897-983b-d518e67184ea" data-name="Layer 9"><circle class="a37b5ca1-9861-494f-9336-64c41d26bfc9" cx="250" cy="250" r="245"/></g><g id="a2f3610c-b183-4f61-9c17-97768a1c0ddf" data-name="Layer 3"><polygon class="f8efe0bc-b526-49f4-a3cf-bc9b72fa9cac" points="278.95 12.52 275.17 15.52 266.03 23.48 253.93 31.72 242.74 38.44 233.57 43.66 226.59 47.36 223.74 58.88 221.92 73.26 221.92 84.44 221.12 111.99 222.46 117.82 227.19 132.71 233.27 148.52 237.87 156.93 242.31 164.67 247.8 172.28 253.86 177.98 260.55 181.5 266.32 181.93 293.8 184.6 307.82 185.16 316.74 184.78 321.18 183.31 330.06 181.55 332.56 186.17 394.95 295.24 396 297.23 463.57 330.97 467.95 347.92 474.96 337.81 483.94 303.94 490.08 262.57 490.87 237.12 488.6 201.88 480.53 179.09 469.7 146.08 451.55 117.41 434.05 94.26 405.75 65.28 377.34 44.82 315.74 16.52 278.95 12.52"/><path class="bbd139f6-f33c-4173-b2b5-770c5f313603" d="M266.16,230.78c-11.63-21.31-23.07-24.65-33.88-28.71s-33.08,9.34-33.08,9.34h0a70.81,70.81,0,0,0-30.33-7.47c-24.22-.39-51.46,29.46-51.46,29.46l50.4-6.49s-39.15-1.41-68.43,4.89-24.33,36.89-24.33,36.89,7.66,2.76,25.23,5.46,47.76-6.3,59.63-9,24.91,1.08,45.79,3.55,69.83-7.15,69.83-7.15S277.78,252.08,266.16,230.78Z"/><path class="be807dea-70e4-40c8-957e-513e51a011d1" d="M275.53,261.54l-.25-6.94s-17.77-8.38-38.94-6.58-35.59,9-41.9,9.91-25.23-2.25-34.53-5.94-33.5,4.59-45.21,4.59-39.65,12.11-39.65,12.11,14.91,9.37,37.1,6,48.7,1.28,55.29-3.65,48.1,10.64,62.6,4.4S269.63,268.64,275.53,261.54Z"/><path class="bbd139f6-f33c-4173-b2b5-770c5f313603" d="M383.09,318.8c-4.67-8.75-9.26-10.13-13.61-11.79s-13.29,3.83-13.29,3.83h0A28,28,0,0,0,344,307.77c-9.73-.16-20.68,12.11-20.68,12.11l20.25-2.67s-15.73-.58-27.49,2-9.77,15.16-9.77,15.16a59.93,59.93,0,0,0,10.13,2.24c7.06,1.11,19.19-2.59,24-3.7s10,.45,18.39,1.46,28.06-2.94,28.06-2.94S387.76,327.55,383.09,318.8Z"/><path class="be807dea-70e4-40c8-957e-513e51a011d1" d="M386.86,331.44l-.1-2.85a33.31,33.31,0,0,0-15.65-2.7c-8.51.74-14.3,3.7-16.83,4.07s-10.14-.93-13.87-2.45S327,329.4,322.24,329.4s-15.92,5-15.92,5a22.75,22.75,0,0,0,14.9,2.45c8.91-1.4,19.56.52,22.21-1.5s19.33,4.37,25.15,1.81S384.49,334.36,386.86,331.44Z"/><path class="bbd139f6-f33c-4173-b2b5-770c5f313603" d="M78.25,391c3.89-5.78,7.73-6.69,11.35-7.8s11.08,2.54,11.08,2.54h0a28.19,28.19,0,0,1,10.15-2c8.11-.1,17.24,8,17.24,8L111.19,390s13.11-.38,22.92,1.33,8.14,10,8.14,10a60.49,60.49,0,0,1-8.45,1.48c-5.88.74-16-1.71-20-2.45s-8.34.3-15.33,1-23.39-1.95-23.39-1.95S74.36,396.81,78.25,391Z"/><path class="be807dea-70e4-40c8-957e-513e51a011d1" d="M75.11,399.38l.09-1.88a34,34,0,0,1,13-1.79c7.09.49,11.92,2.45,14,2.69s8.45-.61,11.56-1.61S125.05,398,129,398s13.27,3.29,13.27,3.29A23.17,23.17,0,0,1,129.83,403c-7.43-.93-16.31.34-18.52-1s-16.11,2.89-21,1.19S77.09,401.31,75.11,399.38Z"/><polygon class="b11f3fdb-4645-414c-a6ba-35dc13ac53da" points="332.6 427.98 333.37 430.21 337.27 435.47 340.66 438.02 344.38 439.58 348.94 440.25 354.93 439 360.16 436.77 366.95 434.12 372.45 430.55 376.57 426.89 379.83 423.49 380.59 420.4 380.59 416.29 379.25 412.31 376.79 407.84 374.42 403.5 371.43 400.01 368.97 398.49 368.79 403.01 368.97 406.59 368.39 411.19 368.03 414.05 366.73 416.69 363.29 418.35 355.33 419.37 349.16 419.37 346.56 418.75 341.25 420.76 334.49 425.86 332.6 427.98"/><polygon class="be860974-5b6f-40a0-aacc-daa2366311f4" points="330.43 429.46 334.56 425.32 339.91 421.16 346.56 417.56 343.84 413.18 337.59 405.92 332.6 402.74 328.72 400.37 322.56 398.91 317.88 397.09 314.75 392 313.84 389.18 306.08 388.37 300.81 385.63 298.52 381.01 298.11 375.71 302.65 366.94 307.79 362.76 312.63 359.78 310.67 358.53 308.63 356.17 307.18 352.31 303.32 353 298.44 354.88 292.37 355.29 289.15 353.38 286.38 354.08 283.46 355.47 280.94 357.27 277.86 359.46 274.52 362.78 271.36 366.45 269.25 369.31 266.39 374.17 265.24 379.98 268.6 396.01 270.5 399.89 273.51 401.72 277.23 404.25 284.76 408.77 290.94 412.73 297.75 418.59 304.72 421.16 326.23 429.46 330.43 429.46"/><polygon class="b11f3fdb-4645-414c-a6ba-35dc13ac53da" points="266.39 374.17 255.84 358.73 238.56 332.87 219.76 310.97 203.01 290.3 183.69 263.63 168.36 241.17 158.52 223.53 155.15 213.55 153.96 205.03 151.25 169.22 148.66 121.38 147.7 100.23 151.64 97.63 159.18 90.98 163.87 85.83 166.78 82 169.69 76.71 170.94 75.06 179.13 73.8 191.16 74.73 201.47 76.78 211.58 80.61 223.27 86.09 243.49 92.57 254.99 96.32 273.55 100.63 288.02 104.46 308.31 108.03 311.44 116.55 309.43 117.02 299.85 116.95 296.68 119.06 292.52 119.33 289.02 118.6 283.2 120.06 276.86 117.81 272.37 119.92 267.28 118.47 264.83 115.83 260.01 117.41 252.28 116.49 250 114.64 246.26 116.95 243.16 114.77 240.58 112.06 234.64 114.11 230.08 112.33 228.49 111.14 223.87 111.86 214.02 107.96 206.95 108.63 202.13 106.18 198.1 109.28 193.54 108.16 193.54 112.72 188.78 113.91 187.26 117.02 180.47 119.56 179.7 140.3 178.97 159.08 180.74 179 182.81 199.02 184.68 207.53 189.35 224.34 198.48 243.43 210.72 261.79 225.24 280.98 238.11 296.86 248.38 309.2 259.27 321.44 275.53 338.89 289.15 353.38 285.68 354.56 280.94 357.27 277.86 359.46 274.52 362.78 269.94 368.03 266.39 374.17"/><polygon class="e94f491f-465a-4d60-a7f8-407eadc71d67" points="148.66 121.38 151.57 120.26 156.18 119.56 161.12 119.76 170.5 119.8 174.19 120.35 180.22 121.83 180.02 131.63 179.11 145.94 179.47 159.9 180.85 180.09 182.62 197.15 187.95 220.93 192.95 231.86 198.48 243.43 204.03 252.63 216.76 270.42 228.36 285.26 244.7 304.78 262.69 324.71 275.53 338.89 285.5 349.49 289.15 353.38 286.08 354.48 281.06 356.76 278.51 359 274.52 362.78 271.47 366.15 269.57 368.68 265.99 374.29 255.67 357.88 247.13 343.67 240.98 336 232.53 326.29 220.05 312.23 206.22 294.25 196.67 282.78 185.7 266.98 172.75 248.5 163.27 232.63 157.11 220.54 154.34 211.38 152.23 182.17 151.19 156.73 149.45 128.78 148.66 121.38"/><polygon class="be860974-5b6f-40a0-aacc-daa2366311f4" points="149.03 120.69 147.7 100.23 156.42 93.65 164.98 84.37 170.52 75.61 179.65 73.76 193.22 74.88 199.4 76.37 199.4 82.66 198.48 86.93 195.3 91.62 189.84 96.74 185.65 101.02 182.99 106.24 181.11 112.71 179.75 121.63 175.58 120.17 170.5 119.8 163.4 119.08 154.71 120.12 149.03 120.69"/><polygon class="e94f491f-465a-4d60-a7f8-407eadc71d67" points="199.4 76.37 215.71 82.21 230.51 88.41 243.49 92.57 241.46 96.95 238.69 100.6 235 104.36 230.48 106.23 226.11 106.72 219.57 106.23 204.11 103.26 192.71 102.16 185.11 101.82 189.84 96.74 195.3 91.62 198.18 87.38 199.05 83.16 199.4 76.37"/><polygon class="e94f491f-465a-4d60-a7f8-407eadc71d67" points="312.08 360.12 316.18 356.53 319.37 352.31 318.94 347.39 315.1 340.14 310.82 339.22 310.5 345.49 308.71 349.39 306.77 350.74 307.73 353.76 308.62 356.54 312.08 360.12"/><polygon class="a64e579c-5d40-412c-a789-b9da2b296445" points="244.13 92.96 254.16 83.66 263.97 76.68 273.56 74.52 285.35 72.56 293.6 71.16 309.86 69.32 316.64 68.47 323.73 67.53 328.68 65.97 358.08 58.02 346.71 79.47 324.16 88.99 323.61 105.27 311.44 116.55 308.31 108.03 244.13 92.96"/><polygon class="a64e579c-5d40-412c-a789-b9da2b296445" points="373.16 166.27 390.37 188.1 407.08 179.09 417.57 153.87 394.94 131.52 373.16 166.27"/><polygon class="a64e579c-5d40-412c-a789-b9da2b296445" points="432.12 250 431.78 180.9 486.21 212.24 488.4 241.41 476.46 234.96 437.41 251.75 432.12 250"/><polygon class="a64e579c-5d40-412c-a789-b9da2b296445" points="226.59 47.36 252.82 54.27 284.78 38.81 296.86 14.11 277.91 12.52 275.17 15.52 258.35 28.8 242.74 38.44 226.59 47.36"/><polygon class="ee530578-5e7e-478a-a663-ce9f165cdb6b" points="342.06 203.1 373.16 212.16 408.78 203.1 407.08 179.09 390.37 188.1 361.34 179.09 330.06 181.55 342.06 203.1"/><polygon class="ee530578-5e7e-478a-a663-ce9f165cdb6b" points="311.44 128.64 342.58 151.96 337.67 171.88 336.63 180.9 319.68 183.54 311.34 160.73 304.03 149.6 303 142.77 311.44 128.64"/><polygon class="a64e579c-5d40-412c-a789-b9da2b296445" points="396 297.23 420.97 294.08 465.14 318.03 463.57 330.97 396 297.23"/><polygon class="a64e579c-5d40-412c-a789-b9da2b296445" points="401.84 240.11 387.68 251.99 407.08 260.17 409.27 258.12 401.84 240.11"/><polygon class="a64e579c-5d40-412c-a789-b9da2b296445" points="390.8 104.82 380.38 102.01 377.74 84.81 397.75 78.03 400.39 90.1 411.47 92.58 402.87 105.48 390.8 104.82"/><polygon class="ee530578-5e7e-478a-a663-ce9f165cdb6b" points="309.43 117.02 311.34 123.6 320.97 122.77 315.84 109.34 311.44 112.39 311.44 117.22 309.43 117.02"/><polygon class="ee530578-5e7e-478a-a663-ce9f165cdb6b" points="235.36 152.33 311.44 117.22 305.33 116.47 298.92 116.55 296.68 119.06 290.22 118.37 286.11 119.33 280.26 119.29 276.86 117.81 272.37 119.92 253.34 134.4 241.77 135.21 232.17 145.66 235.36 152.33"/><polygon class="ee530578-5e7e-478a-a663-ce9f165cdb6b" points="281.04 183.36 270.99 173 261.69 173.84 260.55 181.5 281.04 183.36"/><polygon class="ee530578-5e7e-478a-a663-ce9f165cdb6b" points="452.59 289.57 438.39 271.87 458.13 254.79 478.44 268.95 475.36 287.88 464.13 277.1 472.13 297.72 452.59 289.57"/><path class="b820f4b5-f98f-4d63-a8ce-59c31b6b86ac" d="M307.6,108.07s-61.43-11.21-91.17-25.35-45.82-7.31-45.82-7.31-8.29,16.08-22.91,24.86c0,0,3.41,78.48,6.82,109.68S235,329.88,239.83,334.75s26.33,40,26.33,40-2.54,22.82,8.66,28.13,22,14.54,22.6,15.52,30.07,12.58,32.83,11.79c0,0,10.81-11.79,16.31-11.79,0,0-6.49-15.13-19.46-18.08s-12.18-6.68-13-10.22-9.43,1.38-14.15-5.5.59-15.72,5.7-20.24,15.92-8.06,13.17-16.91-8.26-8.64-8.26-8.64,2.56,10.41-6.88,14.34-14.34.2-14.34.2S204.19,267.26,189.12,224s-8.65-104.93-8.65-104.93,7.6-.1,8.17-4.66c0,0,6.41-.72,5-5.56,0,0,4.27,1.85,8.4-2.42,0,0,4.28,3.7,11.68,1.42,0,0,10.4,6.27,14.82,2.71,0,0,5.27,7.12,12.25,1,0,0,3.91,7.83,9.22,3.42,0,0,9.3,5.55,14.71.57,0,0,3.28,8,12,2.56,0,0,6.12,3.42,12.25.29,0,0,8,2,10.54-1.43l7.12-.43,4.85.86S310,108.52,307.6,108.07Z"/><path class="bf3e59bd-3239-4c3d-92f2-bfdd04dd8b02" d="M180.22,121.83c-11.92-4.44-31.56-1-31.56-1"/><circle class="b11f3fdb-4645-414c-a6ba-35dc13ac53da" cx="168.87" cy="101.85" r="3.41"/><circle class="b11f3fdb-4645-414c-a6ba-35dc13ac53da" cx="181.36" cy="87.14" r="4.48"/><circle class="b11f3fdb-4645-414c-a6ba-35dc13ac53da" cx="159.91" cy="111.52" r="3.49"/><path class="b820f4b5-f98f-4d63-a8ce-59c31b6b86ac" d="M180.47,119.08s.05-13,6.48-19.69,10.38-9.67,11.57-12.92.46-10.29.46-10.29"/><path class="bf3e59bd-3239-4c3d-92f2-bfdd04dd8b02" d="M346.56,418.38c3.4,1.48,7.57,1.15,11.16.73a54.54,54.54,0,0,0,6.13-.73,5.55,5.55,0,0,0,2.93-1.65c1.71-2,2-5.65,2.17-8.15a72.77,72.77,0,0,0-.08-10.23c4.56,1.2,15.85,18.72,10.32,25.69s-12,10.32-25.68,15.12-21.32-11-21.32-11"/><circle class="e94f491f-465a-4d60-a7f8-407eadc71d67" cx="326.86" cy="416.59" r="4.56"/><path class="e94f491f-465a-4d60-a7f8-407eadc71d67" d="M322.26,416.74a55.94,55.94,0,0,1-9.89-1.64,45.06,45.06,0,0,1-4.84-1.51,20,20,0,0,1-2.39-1,7,7,0,0,1-2.39-1.87,2.9,2.9,0,0,1-.29-.52,2.12,2.12,0,0,1-.11-.33l-.19-.61c-.12-.41-.25-.81-.35-1.21l-.66-2.39A36,36,0,0,0,299.5,401c-1.37-3-3.25-5.77-6.09-7.32-1.38-.89-2.83-1.7-4.22-2.74a14.8,14.8,0,0,1-3.7-3.9,17.49,17.49,0,0,1-1.29-2.36l-.28-.61-.23-.67a9,9,0,0,1-.39-1.36,22.79,22.79,0,0,1-.42-5.29,72.83,72.83,0,0,1,1.29-10c0-.18.06-.39.07-.55a2.24,2.24,0,0,1,0-.37c.05-.06-.08-.35-.31-.67-.42-.61-.94-1.25-1.46-1.87l-3.28-3.74.19-.23a41.87,41.87,0,0,1,4.15,2.86,18.32,18.32,0,0,1,1.95,1.73,4.79,4.79,0,0,1,.48.57,2.2,2.2,0,0,1,.24.4,1.36,1.36,0,0,1,.18.5,3.51,3.51,0,0,1,.1.86c0,.26,0,.46,0,.69,0,1.74-.17,3.36-.26,5s-.18,3.24-.18,4.83a25.49,25.49,0,0,0,.29,4.6,6.72,6.72,0,0,0,.24,1.05l.14.5.21.54a16.21,16.21,0,0,0,1,2.07,14.71,14.71,0,0,0,2.82,3.52c1.15,1.08,2.42,2.17,3.68,3.28l.93.85c.31.31.63.62.93.94.56.67,1.08,1.35,1.56,2.05a49,49,0,0,1,2.54,4.36c.79,1.48,1.55,3,2.32,4.46l1.11,2.25.53,1.12.26.54a1.91,1.91,0,0,0,.13.25s0,0,0,0a7.81,7.81,0,0,0,1.63,1c.68.34,1.41.65,2.15,1,1.47.62,3,1.18,4.54,1.76,3.07,1.15,6.19,2.24,9.27,3.57Z"/><path class="b820f4b5-f98f-4d63-a8ce-59c31b6b86ac" d="M266.16,374.73s7.56-17.21,23.21-21.4"/><path class="bf3e59bd-3239-4c3d-92f2-bfdd04dd8b02" d="M307,351.12s.74,6.9,5.6,8.34"/><path class="bf3e59bd-3239-4c3d-92f2-bfdd04dd8b02" d="M319.68,184.05s-8.19-27-12.65-30.63-4-10.37-4-10.37,5.84-9.46,8.33-14.41"/><path class="bf3e59bd-3239-4c3d-92f2-bfdd04dd8b02" d="M221.92,84.44s.45-30.59,5-37.34c0,0,34.4-16.07,56.85-39.8"/><path class="bf3e59bd-3239-4c3d-92f2-bfdd04dd8b02" d="M371.38,96.32,362.93,153l27,35.14-29.28-9s-32,1.35-41,5-58.57-2.7-58.57-2.7c-25.23-8.11-40.41-70.1-40.41-70.1"/><polyline class="bf3e59bd-3239-4c3d-92f2-bfdd04dd8b02" points="469.7 353.33 463.39 330.92 395.81 296.68 329.81 182.08"/><polyline class="bf3e59bd-3239-4c3d-92f2-bfdd04dd8b02" points="407.08 179.09 418.34 153.87 462.83 132.01"/><circle cx="351.67" cy="434.98" r="2.7" transform="translate(-107.15 754.93) rotate(-85.93)"/><path class="bf3e59bd-3239-4c3d-92f2-bfdd04dd8b02" d="M185.65,101s18.15,2.18,24.56,3.41,17.25,3.1,22.83.74,10.09-9.87,10.45-12.6"/><path d="M250,12a238.07,238.07,0,0,1,92.64,457.3A238.06,238.06,0,0,1,157.36,30.7,236.51,236.51,0,0,1,250,12m0-7C114.69,5,5,114.69,5,250S114.69,495,250,495,495,385.31,495,250,385.31,5,250,5Z"/></g></svg>