<svg xmlns="http://www.w3.org/2000/svg" xmlns:xlink="http://www.w3.org/1999/xlink" viewBox="0 0 500 500"><defs><style>.a272c381-2de8-4413-8c13-74c99e3b1e92{fill:#664a2f;}.e6f8a92c-a7f0-4441-a97f-1c59b2e4409f{fill:none;}.e88113a6-0847-4ad6-814a-ebfba1a279e3{fill:#264415;}.a19bc377-5089-4e5e-98ce-535a4b5d3789{fill:url(#aa8856c0-7e34-48d2-9995-dfa07970f98d);}.a7c29a35-929d-4636-a709-6e321a84543f{fill:url(#b317fc21-e0a2-4fb6-9b59-654def4bca99);}.a8369e74-3413-4f82-b602-0322e2d51fda{fill:#928b00;}.a0d08b83-c397-4e48-9c6e-0e61f8c41b92{fill:#5c1200;}.babab37b-142a-4c02-a4ef-fe4f2074e8db{fill:#022213;}.f728f503-7789-44f8-8b60-efc49bb56bf5{fill:#ccce8e;}.ff878b3a-4fb2-4cc4-a281-73b1e05a872b{fill:#f9ffb2;}.f221f13d-20a2-41d9-b449-d2f3998c48cf{fill:#913633;}.a403cdfb-cce5-4e84-a09d-2ba4a5157a45{fill:url(#aef0ff07-aadc-4def-a8b3-367e52f593e7);}.a9a8e4c3-3ef8-4ebc-b123-da384353f40d{fill:url(#fae75d23-abb5-4bb0-a24d-e32ae0d692a8);}.b3fe6e56-ec5a-4587-b0e0-6ee205477ff4{fill:#3f2c1d;}</style><linearGradient id="aa8856c0-7e34-48d2-9995-dfa07970f98d" x1="239.86" y1="-20.66" x2="239.86" y2="217.42" gradientUnits="userSpaceOnUse"><stop offset="0" stop-color="#3b7f00"/><stop offset="1" stop-color="#152f08"/></linearGradient><linearGradient id="b317fc21-e0a2-4fb6-9b59-654def4bca99" x1="267.71" y1="-20.66" x2="267.71" y2="217.42" xlink:href="#aa8856c0-7e34-48d2-9995-dfa07970f98d"/><linearGradient id="aef0ff07-aadc-4def-a8b3-367e52f593e7" x1="-4.36" y1="7.64" x2="132.35" y2="333.41" gradientUnits="userSpaceOnUse"><stop offset="0.05" stop-color="#913633"/><stop offset="1" stop-color="#5c1200"/></linearGradient><linearGradient id="fae75d23-abb5-4bb0-a24d-e32ae0d692a8" x1="512.42" y1="-10.34" x2="274.38" y2="307.95" xlink:href="#aef0ff07-aadc-4def-a8b3-367e52f593e7"/></defs><title>actives icon</title><g id="a0cef7a0-36be-4b9b-a33e-e0d9398259b1" data-name="Layer 2"><path class="a272c381-2de8-4413-8c13-74c99e3b1e92" d="M220,376.11s12.21-11.39,12.67-15.35S220.7,344.41,220,347.38,215.25,363.73,220,376.11Z"/></g><g id="a4728fdf-878a-4b8b-8849-4db0d911902f" data-name="Layer 3"><path class="e6f8a92c-a7f0-4441-a97f-1c59b2e4409f" d="M235.48,302.1v0h0Z"/><path class="e6f8a92c-a7f0-4441-a97f-1c59b2e4409f" d="M236.41,304.82l1.2,3.54h.13l-.29-.82S237,306.51,236.41,304.82Z"/><path class="e6f8a92c-a7f0-4441-a97f-1c59b2e4409f" d="M232.66,286v0Z"/><path class="e6f8a92c-a7f0-4441-a97f-1c59b2e4409f" d="M219.8,10.86l18.89-1.92h34l44.47,9.68V14.31A245.29,245.29,0,0,0,250,5a248,248,0,0,0-30.28,1.86v14Z"/><path class="e6f8a92c-a7f0-4441-a97f-1c59b2e4409f" d="M75.76,416.63c-1.5,1.83-2.35,3.11-2.38,3.16a247.55,247.55,0,0,0,31.79,27.82q2.14-2.3,4.11-4.32Z"/><path class="e6f8a92c-a7f0-4441-a97f-1c59b2e4409f" d="M445.71,391.34l-1.5,2.29L406,435.31l-37.27,25.52-39.64,16.42-23.81,4.9a59.81,59.81,0,0,0,6.45,5,245.37,245.37,0,0,0,137.74-94.85Z"/><path class="e6f8a92c-a7f0-4441-a97f-1c59b2e4409f" d="M233.52,281.44v0h0Z"/><path class="e88113a6-0847-4ad6-814a-ebfba1a279e3" d="M238.48,276.56c.83-.39,1.75-.78,2.76-1.14l-2.24.63Z"/><path class="a19bc377-5089-4e5e-98ce-535a4b5d3789" d="M238.48,276.56c.83-.39,1.75-.78,2.76-1.14l-2.24.63Z"/><path class="e88113a6-0847-4ad6-814a-ebfba1a279e3" d="M225.47,250c5.87,12.39,24.53,20.33,24.53,20.33v2.6l-.06,0c14.07-3.23,32.76-5,34.8-5.86,3-1.26,32.38-4,32.38-4V18.62L272.65,8.94h-34L219.8,10.86l-.08,10V220.56s1.1,13.59-1.42,24.88C220.85,246.6,224.81,248.59,225.47,250Z"/><path class="a7c29a35-929d-4636-a709-6e321a84543f" d="M225.47,250c5.87,12.39,24.53,20.33,24.53,20.33v2.6l-.06,0c14.07-3.23,32.76-5,34.8-5.86,3-1.26,32.38-4,32.38-4V18.62L272.65,8.94h-34L219.8,10.86l-.08,10V220.56s1.1,13.59-1.42,24.88C220.85,246.6,224.81,248.59,225.47,250Z"/><path class="a8369e74-3413-4f82-b602-0322e2d51fda" d="M175.1,299.76l-42.68-5.85c2.53,7.17,4.73,12.59,6.19,14.64,6.54,9.19,26.17,37.74,26.17,37.74s-4.76,9.32-15.46,7c0,0-7.14,20.92-11.6,27.46s-11,8.32-19.93,13.08-4.75,10.11-19,9.52c-10.33-.43-19,8.35-23,13.24l33.52,26.66c11.64-12,18.85-17,23.55-18.84.85-.35,9.94-3.92,9.49-6.5-.33-1.89-5.46-1.33-6.49-3.5-2.3-4.83,17.8-19,25-24,33.84-23.48,47.17-27.92,48-39,.56-8-6-10.35-5.5-20.49.51-9.69,7-17.37,12.92-22.55l-4.81-.06Z"/><path class="a8369e74-3413-4f82-b602-0322e2d51fda" d="M381.71,355.31a78.15,78.15,0,0,1-15.36-3.47s-6.44-11.89-9.41-12.39-28.24,0-28.24,0l-4.95-22.78-17.34-8.12a27.16,27.16,0,0,0,4.19-6.26l-22.68,5.25-12.59.53a29.56,29.56,0,0,0,4.67.25c-1.07,5.72-3,8.87-3.29,14.71-.27,4.77.2,5,0,10.49-.4,11.08-2.46,13.18-1,18,.76,2.48,2.12,4.61,8,10,8.13,7.44,13.34,10.55,18.49,14.49,16.85,12.91,15.14,21.2,26.48,24.48,9.05,2.61,13.82-1.61,17,2,5.73,6.53-5.69,25.25-9.49,31.48a110.92,110.92,0,0,1-20.48,24.48c-10.55,9.19-15.22,9.48-16,13.49-.49,2.59.81,5.91,5.57,10.24l23.81-4.9,39.64-16.42L406,435.31l38.23-41.68,1.5-2.29-47.65-12.25S390.13,356.3,381.71,355.31Z"/><path class="a0d08b83-c397-4e48-9c6e-0e61f8c41b92" d="M115.85,240.75,160.18,227l55.95,17.46s.91.38,2.17.95c2.52-11.29,1.42-24.88,1.42-24.88V6.86A243.61,243.61,0,0,0,110.66,48.48v174.1S112.76,230.12,115.85,240.75Z"/><path class="babab37b-142a-4c02-a4ef-fe4f2074e8db" d="M235.48,302.1v0h0c-1.42-4.45-3.05-10.82-2.81-16.09h0v0a14.57,14.57,0,0,1,.86-4.49v0h0a7.88,7.88,0,0,1,1.64-2.67,11.63,11.63,0,0,1,3.31-2.17l.52-.51,2.24-.63a74.41,74.41,0,0,1,8.7-2.47l.06,0v-2.6s-18.66-7.94-24.53-20.33c-.66-1.41-4.62-3.4-7.17-4.56-1.26-.57-2.17-.95-2.17-.95L160.18,227l-44.33,13.72c4.57,15.74,11.3,38.25,16.57,53.16l42.68,5.85,36.28,8.65,4.81.06,1.07-.93c.22-.18,1.58.09,1.89.11q9.22.48,18.46.71l-1.2-3.54C236.13,304,235.81,303.12,235.48,302.1Z"/><path class="f728f503-7789-44f8-8b60-efc49bb56bf5" d="M310.6,302.29c5.32-10.6,6.52-25.25,6.52-25.25v-14s-29.34,2.78-32.38,4c-2,.86-20.73,2.63-34.8,5.86a74.41,74.41,0,0,0-8.7,2.47c-1,.36-1.93.75-2.76,1.14a11.63,11.63,0,0,0-3.31,2.17,7.88,7.88,0,0,0-1.64,2.67v0a14.57,14.57,0,0,0-.86,4.49v0c-.24,5.27,1.39,11.64,2.81,16.09v0c.33,1,.65,1.94.93,2.72.6,1.69,1,2.72,1,2.72l.29.82q7.62.18,15.24.13l1.9,0a93,93,0,0,0,12.37-.76,32,32,0,0,1,8.08.36l12.59-.53Zm-15.08-17s4.13-3.9,6.79-3.41,4.61.31,5.82-1.91l1.21-2.21s1.7,8-4.85,9S295.52,285.3,295.52,285.3ZM285.1,277c1.7,3.88,4.36,6,5.33,4.95l-1,1.07s-6.54,1.91-7.76,0-4.52-1.07-4.52-1.07S283.4,273.16,285.1,277Z"/><path class="ff878b3a-4fb2-4cc4-a281-73b1e05a872b" d="M299.69,471.91c.77-4,5.44-4.3,16-13.49a110.92,110.92,0,0,0,20.48-24.48c3.8-6.23,15.22-24.95,9.49-31.48-3.16-3.6-7.93.62-17-2C317.33,397.19,319,388.9,302.19,376c-5.15-3.94-10.36-7.05-18.49-14.49-5.87-5.38-7.23-7.51-8-10-1.46-4.81.6-6.91,1-18,.2-5.45-.27-5.72,0-10.49.33-5.84,2.22-9,3.29-14.71a29.56,29.56,0,0,1-4.67-.25,32,32,0,0,0-8.08-.36,93,93,0,0,1-12.37.76l-1.9,0q-7.62.06-15.24-.13h-.13q-9.24-.23-18.46-.71c-.31,0-1.67-.29-1.89-.11l-1.07.93c-5.87,5.18-12.41,12.86-12.92,22.55-.53,10.14,6.06,12.53,5.5,20.49-.79,11-14.12,15.48-48,39-7.18,5-27.28,19.15-25,24,1,2.17,6.16,1.61,6.49,3.5.45,2.58-8.64,6.15-9.49,6.5-4.7,1.88-11.91,6.88-23.55,18.84q-2,2-4.11,4.32a245.5,245.5,0,0,0,206.54,39.55,59.81,59.81,0,0,1-6.45-5C300.5,477.82,299.2,474.5,299.69,471.91ZM242.74,333.72c-1.24.7-7.67-2.69-10.11-3.68s-8.69,7.43-8.69,7.43h-4c1.48-16.55,20.56-14.86,22.78-12.38S244,333,242.74,333.72Z"/><path class="f221f13d-20a2-41d9-b449-d2f3998c48cf" d="M98.76,403.39c14.28.59,10.11-4.76,19-9.52s15.47-6.54,19.93-13.08,11.6-27.46,11.6-27.46c10.7,2.28,15.46-7,15.46-7s-19.63-28.55-26.17-37.74c-1.46-2.05-3.66-7.47-6.19-14.64-5.27-14.91-12-37.42-16.57-53.16-3.09-10.63-5.19-18.17-5.19-18.17V48.48A246.41,246.41,0,0,0,63,91.75h5.57V414.63q2.39,2.61,4.83,5.16c0-.05.88-1.33,2.38-3.16C79.76,411.74,88.43,403,98.76,403.39Z"/><path class="a403cdfb-cce5-4e84-a09d-2ba4a5157a45" d="M98.76,403.39c14.28.59,10.11-4.76,19-9.52s15.47-6.54,19.93-13.08,11.6-27.46,11.6-27.46c10.7,2.28,15.46-7,15.46-7s-19.63-28.55-26.17-37.74c-1.46-2.05-3.66-7.47-6.19-14.64-5.27-14.91-12-37.42-16.57-53.16-3.09-10.63-5.19-18.17-5.19-18.17V48.48A246.41,246.41,0,0,0,63,91.75h5.57V414.63q2.39,2.61,4.83,5.16c0-.05.88-1.33,2.38-3.16C79.76,411.74,88.43,403,98.76,403.39Z"/><path class="f221f13d-20a2-41d9-b449-d2f3998c48cf" d="M317.12,263.05v14s-1.2,14.65-6.52,25.25a27.16,27.16,0,0,1-4.19,6.26l17.34,8.12,4.95,22.78s25.27-.49,28.24,0,9.41,12.39,9.41,12.39a78.15,78.15,0,0,0,15.36,3.47c8.42,1,16.35,23.78,16.35,23.78V54.8a244.27,244.27,0,0,0-80.94-40.49V263.05Z"/><path class="a9a8e4c3-3ef8-4ebc-b123-da384353f40d" d="M317.12,263.05v14s-1.2,14.65-6.52,25.25a27.16,27.16,0,0,1-4.19,6.26l17.34,8.12,4.95,22.78s25.27-.49,28.24,0,9.41,12.39,9.41,12.39a78.15,78.15,0,0,0,15.36,3.47c8.42,1,16.35,23.78,16.35,23.78V54.8a244.27,244.27,0,0,0-80.94-40.49V263.05Z"/><path class="a272c381-2de8-4413-8c13-74c99e3b1e92" d="M220,337.47h4s6.25-8.42,8.69-7.43,8.87,4.38,10.11,3.68,2.22-6.15,0-8.63S221.44,320.92,220,337.47Z"/><path class="b3fe6e56-ec5a-4587-b0e0-6ee205477ff4" d="M281.7,283.06c1.22,1.91,7.76,0,7.76,0l1-1.07c-1,1.07-3.63-1.07-5.33-4.95s-7.92,4.95-7.92,4.95S280.49,281.16,281.7,283.06Z"/><path class="b3fe6e56-ec5a-4587-b0e0-6ee205477ff4" d="M309.34,277.77,308.13,280c-1.21,2.22-3.15,2.39-5.82,1.91s-6.79,3.41-6.79,3.41,2.43,2.41,9,1.44S309.34,277.77,309.34,277.77Z"/><path class="a0d08b83-c397-4e48-9c6e-0e61f8c41b92" d="M68.55,91.75H63a245,245,0,0,0,5.57,322.88Z"/><path class="a0d08b83-c397-4e48-9c6e-0e61f8c41b92" d="M398.06,379.09l47.65,12.25,3.74,1A245,245,0,0,0,398.06,54.8Z"/><path class="a272c381-2de8-4413-8c13-74c99e3b1e92" d="M145.32,451.91s15.45,11.39,23.37-4.46-1.78-14.37,2.09-30.72-14-6.44-15.46,4.46,4,18.91,0,23.08A51.94,51.94,0,0,1,145.32,451.91Z"/><path class="a272c381-2de8-4413-8c13-74c99e3b1e92" d="M205.35,428.62s-1.48-5.94,3.47-16.84,19.81-16.84,20.81-18.33,9.28-15.85,8.11-8.92-5.14,4.06-2.67,11.94,12.39,23.41,5,28.27S216.25,443.48,205.35,428.62Z"/><path d="M250,12a238.07,238.07,0,0,1,92.64,457.3A238.06,238.06,0,0,1,157.36,30.7,236.51,236.51,0,0,1,250,12m0-7C114.69,5,5,114.69,5,250S114.69,495,250,495,495,385.31,495,250,385.31,5,250,5Z"/></g></svg>