<svg xmlns="http://www.w3.org/2000/svg" viewBox="0 0 500 500"><defs><style>.ba435242-0a02-43f4-84da-4794f7ae3fe6{fill:#60af54;}.e5c68598-49f7-4ccd-ba5b-a9424eed1279{fill:#3a160a;}.ff7bd1db-0668-4918-aa81-92d928c56e2d{fill:#b57662;}.b7e26c97-407c-450f-ab77-8918681231c4{fill:#7f3324;}.e511f461-37eb-48d3-a4b3-61347e4c3875{fill:#e2bd7a;}.bd67ab1a-c30b-4541-bb73-ba49dbb1dc3e{fill:#f7dba4;}.e8795778-7b48-4f1e-b003-cc26ee0f3a72{fill:#578c4d;}.b06ed23a-062d-4e83-92f6-cab003420ca7,.be7406fd-cb5f-4605-b7c6-724e4b0a68a8{fill:none;}.bbf35527-d6c8-44e6-be01-a6931d291192{fill:#ad6240;}.bc61e053-aece-4d53-8aeb-e090be10a024{fill:#5b2c1a;}.b02e1dea-6aca-4c41-874f-9eeb85812437{fill:#ce8d76;}.b06ed23a-062d-4e83-92f6-cab003420ca7{stroke:#7f3324;stroke-miterlimit:10;}.ad37adb9-fd84-4387-8005-b6df0b941337{fill:#cecece;}</style></defs><title>actives icon</title><g id="a62e40fe-7da6-416a-9252-dec5836fc117" data-name="Layer 9"><circle class="ba435242-0a02-43f4-84da-4794f7ae3fe6" cx="250" cy="250" r="245"/></g><g id="bd6e8266-1cc3-4fca-90db-03461e072637" data-name="Layer 3"><polygon class="e5c68598-49f7-4ccd-ba5b-a9424eed1279" points="333.59 196.03 336.07 197.9 337.8 198.94 340.86 201.09 345.48 204.7 348.13 206.9 350.66 209.03 353.52 211.56 357.81 215.72 359.81 217.96 361.99 220.78 364.32 224.37 366.01 228.67 367.61 233.81 367.91 237.83 367.07 244.46 365.67 250 363.12 255.53 359.39 260.53 354.29 265.13 351 267.37 346.69 269.51 341.27 271 336.9 271 332 269.13 329 266.98 324.23 263.35 319.7 261.42 314.27 260.63 311 260.96 308.44 261.43 305.12 261.51 300.39 260.38 296.76 258.68 292.83 255.9 289.32 252.04 285.41 246.78 283.77 243.35 282.73 239.53 281.64 235.03 281.48 233.26 277.32 232.62 277.32 227.97 276.7 224.02 275.39 220.56 272.95 214.38 271.77 208.31 271.19 201.26 272.08 194.78 273.44 190.34 274.97 186.96 276.06 188.09 280.96 190.65 283.13 191.72 288.49 193.72 291.45 194.13 293.99 195.28 297.15 195.5 301.07 196.12 307.12 196.4 308.88 196.35 311.93 196.12 315.43 195.85 319.27 195.28 320.43 196.51 322.67 199.18 324.54 199.93 326.38 200.43 329.11 200.25 331.57 198.97 333.59 196.03"/><polygon class="ff7bd1db-0668-4918-aa81-92d928c56e2d" points="286.18 248.87 284.29 254.98 282.13 262.32 280.65 267.59 278.1 277.31 275.28 289.49 273.01 301.8 272.22 307.81 271.7 316.73 271.7 321.57 273.02 325.93 276.96 333.29 279.4 336.62 284.14 341.64 287.14 344.12 292.92 347.74 293.75 347.74 295.65 336.51 298.62 317.73 299.96 308.23 301.29 297.26 301.96 290.25 302.37 284.72 302.68 277.31 302.68 269.54 301.42 260.81 297.3 259.1 294.19 256.92 291.79 255.14 289.32 252.04 286.66 249.54 286.18 248.87"/><polygon class="ff7bd1db-0668-4918-aa81-92d928c56e2d" points="339.57 271.59 340.31 274.52 340.31 290.4 339.94 297.78 339.14 307.63 337.69 320.51 336.5 328.88 334.76 339.13 333.01 347.19 331.82 350.08 327.47 352.96 325.9 353.64 326.52 328.32 327.37 314.78 328.18 304 329.1 293.06 330.2 281.15 331.46 268.81 333.11 269.71 334.84 270.4 337.49 270.76 339.57 271.59"/><polygon class="e5c68598-49f7-4ccd-ba5b-a9424eed1279" points="301.76 261.26 302.16 264 302.68 267.15 302.8 273.04 302.65 277.98 302.28 283.39 301.79 292.1 300.98 302.11 299.73 311.64 298.32 320.18 296.22 332.91 294.05 346.67 292.85 358.09 292.32 362.07 299.8 365.95 308.87 368.47 316.38 371.25 318.27 372.48 318.39 377.61 318.99 382.36 318.68 392.83 317.57 397.49 315.84 400.18 314.15 401.15 308.68 400.79 302.63 398.37 298.66 394.42 296.86 390.54 296.98 386.32 299.42 367.47 291.93 364.1 289.99 371.98 288.48 377.34 286.23 385.47 285.46 390.91 287.54 397.05 290.55 402.41 292.09 404.48 295.5 408.06 298.37 410.01 303.41 412.44 308.85 414.42 314.06 415.93 318.58 416.53 320.33 416.53 322.85 413.69 324.9 408.83 328.17 400.6 330.45 393.89 331.46 390.17 331.1 386.51 330.78 383.21 327.79 371.68 326.55 365.85 326.06 360.52 325.78 353.07 326.15 336.17 327 320.72 327.84 308.46 329.99 282.42 331.46 268.81 329.26 267.47 327.62 265.93 325.4 264.25 322.36 262.22 318.59 261.26 315.16 260.39 311.92 260.81 308.44 261.43 303.08 261.02 301.76 261.26"/><path class="b7e26c97-407c-450f-ab77-8918681231c4" d="M281.63,233.25a33.26,33.26,0,0,0,3.09,10.68,34.51,34.51,0,0,0,6.36,8.95,26.23,26.23,0,0,0,8.9,6,19.52,19.52,0,0,0,5.11,1.31,16.12,16.12,0,0,0,5.23-.47,22.91,22.91,0,0,1,3-.43,17.23,17.23,0,0,1,3.05.07,23.9,23.9,0,0,1,5.81,1.45,19.72,19.72,0,0,1,5.14,3.08c1.55,1.21,2.86,2.55,4.29,3.58a14,14,0,0,0,10,2.48,19.89,19.89,0,0,0,5.28-1.29,27.56,27.56,0,0,0,4.94-2.49,36,36,0,0,0,4.47-3.33,27,27,0,0,0,3.87-4,38.94,38.94,0,0,0,3-4.69,36.63,36.63,0,0,0,2.25-5.09,28.73,28.73,0,0,0-.66-21.46,36.56,36.56,0,0,0-6.05-9.07,88.37,88.37,0,0,0-8-7.67c-1.42-1.22-2.86-2.41-4.32-3.59s-2.9-2.38-4.38-3.49a103.88,103.88,0,0,0-9.21-6.22l-1.2-.73.57-1.29a28.12,28.12,0,0,0-6.3-31.58,38.6,38.6,0,0,0-7-5.24,36.78,36.78,0,0,0-8-3.55,31,31,0,0,0-8.71-1.32,23.07,23.07,0,0,0-8.69,1.7l-.13-.27a22.08,22.08,0,0,1,8.77-2.48,29,29,0,0,1,9.18.78,37.77,37.77,0,0,1,16.3,8.55A30.13,30.13,0,0,1,337,178.26a30.65,30.65,0,0,1,.55,9.46,30.08,30.08,0,0,1-2.45,9.18l-.64-2a90.42,90.42,0,0,1,9.42,6.55c1.51,1.19,3,2.43,4.4,3.64s2.88,2.46,4.3,3.72a77.84,77.84,0,0,1,8.09,8.15,36.92,36.92,0,0,1,6.07,9.9,29.4,29.4,0,0,1,2,11.41,32.65,32.65,0,0,1-2.28,11.24,40.39,40.39,0,0,1-5.56,10,27.74,27.74,0,0,1-3.95,4.15,44,44,0,0,1-4.5,3.53,26.6,26.6,0,0,1-10.6,4.51,18.17,18.17,0,0,1-2.95.26,14.89,14.89,0,0,1-1.49-.09,10.63,10.63,0,0,1-1.49-.18,15,15,0,0,1-5.59-2.24c-1.7-1.1-3.11-2.38-4.56-3.46a18.57,18.57,0,0,0-4.57-2.6,21.37,21.37,0,0,0-5.13-1.25,15.91,15.91,0,0,0-5.22.26c-.91.16-1.88.36-2.9.45a15.19,15.19,0,0,1-3.09,0,20.72,20.72,0,0,1-5.76-1.63,26.22,26.22,0,0,1-5.11-2.95,31.05,31.05,0,0,1-4.3-4,33.23,33.23,0,0,1-6.11-9.78,31,31,0,0,1-2.21-11.18Z"/><polygon class="e511f461-37eb-48d3-a4b3-61347e4c3875" points="90.47 178.8 87.36 352.7 133.17 369.73 133.17 191.22 90.47 178.8"/><polygon class="bd67ab1a-c30b-4541-bb73-ba49dbb1dc3e" points="133.17 369.73 160.33 353.92 160.33 198.7 133.17 191.22 133.17 369.73"/><path class="e8795778-7b48-4f1e-b003-cc26ee0f3a72" d="M379.79,452.5s-1.35-16.11-8.49-18-8.85,8.24-8.85,8.24,5.29-5,7.13-5.16,5.41,18.2,5.41,18.2Z"/><path class="e8795778-7b48-4f1e-b003-cc26ee0f3a72" d="M392.21,442.91s2.21-10.58-1-14.51c0,0-5.78,6.14-6.4,12.54s-1.11,10-1.11,10Z"/><path class="e8795778-7b48-4f1e-b003-cc26ee0f3a72" d="M130.15,370.63s.39-14.18,5-15.23,5.62,8.67,5.62,8.67-5.38-2.89-5.3-4.47c0,0-1.89,10.77-1,13.13S130.06,372.22,130.15,370.63Z"/><path class="e8795778-7b48-4f1e-b003-cc26ee0f3a72" d="M131.12,368.66s-4.2-17.32-10.23-18.24-8,5.64-8,5.64,5.91-1.05,6.69-.13,6.7,10.76,7.62,15.88,7.29.92,7.29.92Z"/><path class="e8795778-7b48-4f1e-b003-cc26ee0f3a72" d="M133.47,372.66s4.41-11.22,6.27-7.74,1.7,5.06,1.7,5.06-.71-2.8-2.67-3-3.64,6.49-3.64,6.49-2.3.71-1.66-.8"/><path class="be7406fd-cb5f-4605-b7c6-724e4b0a68a8" d="M457.24,285.77l-2.07,98.15a243.51,243.51,0,0,0,35.59-88.38l-33.52-9.77Z"/><path class="be7406fd-cb5f-4605-b7c6-724e4b0a68a8" d="M495,250C495,114.69,385.31,5,250,5A244.94,244.94,0,0,0,35.56,131.44L495,253.29C495,252.19,495,251.1,495,250Z"/><path class="be7406fd-cb5f-4605-b7c6-724e4b0a68a8" d="M377.24,450.82V262.44L22.48,159A244.35,244.35,0,0,0,5,250C5,385.31,114.69,495,250,495a243.88,243.88,0,0,0,127.24-35.59Z"/><path class="bd67ab1a-c30b-4541-bb73-ba49dbb1dc3e" d="M495,253.29,35.56,131.44q-2.16,3.92-4.19,7.9l462.87,130Q494.85,261.41,495,253.29Z"/><path class="e511f461-37eb-48d3-a4b3-61347e4c3875" d="M377.24,261.63l53.92,15.68,26.08,8.46,33.52,9.77a246.88,246.88,0,0,0,3.48-26.15l-462.87-130q-4.86,9.58-8.89,19.63L377.24,262.44Z"/><path class="bd67ab1a-c30b-4541-bb73-ba49dbb1dc3e" d="M457.24,285.77l-26.08-8.46V414.94a245.91,245.91,0,0,0,24-31l2.07-98.15Z"/><path class="e511f461-37eb-48d3-a4b3-61347e4c3875" d="M431.16,277.31l-53.92-15.68V459.41a246.07,246.07,0,0,0,53.92-44.47Z"/><polygon class="bbf35527-d6c8-44e6-be01-a6931d291192" points="266.85 249.1 269.73 245.86 272.95 241.22 275.28 236.87 276.99 231.44 277.32 226.37 274.97 219.7 272.95 214.38 271.67 207.81 271.36 199.85 272.08 194.78 274.62 188.06 277.09 184.33 284.05 177.73 290.18 174.77 296.24 172.33 301.53 170.81 304.56 170.21 308.38 170.61 311.69 172.19 314.06 174 316.84 177.55 318.49 180.34 319.46 183.58 319.78 187.4 319.78 190.78 319.27 195.28 322.36 198.54 324.54 199.93 327.11 200.51 329.64 199.91 332.25 197.9 334.15 194.88 335.63 189.56 336.07 184.77 335.52 177.1 333.25 171.98 330.32 167.53 326.98 163.36 320.51 158.48 314.2 155.45 310.01 154.18 304.58 153.4 300.07 153.55 295.77 154.51 292.97 155.74 290.99 137.88 293.89 135.7 296.64 132.93 299.2 129.44 299.82 125.9 299.82 124.15 293.77 126.61 288.8 129 284.49 131.38 280.35 134.14 277.17 136.87 275.01 139.31 276.36 158.85 275.74 158.48 273.46 160.01 269.4 162.34 266.48 163.38 263.18 165.19 258.12 168.63 254.66 170.06 247.52 173.6 243.19 175.81 238.73 178.98 237.17 180.37 234.41 183.24 232.07 186.24 228.81 192.09 227.22 197.02 226.41 201.96 226.41 206.4 226.8 211.41 227.93 216.78 230.05 222.96 232.8 228.5 237.44 236.24 239.54 239.2 242.48 242.84 244.74 245.24 247.61 247.78 252.19 250.66 256.32 251.99 260.49 252.04 264.07 251.51 266.85 249.1"/><polygon class="bc61e053-aece-4d53-8aeb-e090be10a024" points="319.27 195.28 319.78 189.97 319.46 185 317.9 179.35 315.42 175.54 311.69 172.19 306.36 170.4 302.28 170.66 295.45 172.65 288.98 174.78 282.93 178.78 279.79 181.54 277.09 184.33 275.35 186.48 275.35 187.32 278.56 189.47 280.96 190.65 287.03 193.1 289.49 193.88 292.37 194.66 295.51 195.28 299.82 196.01 303.64 196.35 308.88 196.35 314.12 195.9 319.27 195.28"/><polygon class="b02e1dea-6aca-4c41-874f-9eeb85812437" points="155.53 150.48 152.96 153.07 150.45 156.11 148.29 159.27 146.26 162.78 145.22 165.15 143.88 167.9 142.48 173.5 141.38 177.59 140.47 181.49 140.47 186.55 140.96 193.01 141.79 196.51 144.74 204.35 147.1 208.31 148.51 210.51 145.73 213.24 142.78 216.49 140.98 220.54 139.28 224.91 138.53 228.64 138.31 232.52 138.17 236.99 139.35 240.05 140.54 243.19 143.38 247.23 145.6 249.5 150.42 252.39 150.08 258.41 150.71 264.08 152.18 268.39 154.52 272.08 156.28 275.2 159.77 278.73 161.83 280.48 164.34 282.47 167.24 284.11 170.83 285.9 173.96 286.47 179.6 287.5 183.66 287.67 187.1 287.8 192.2 287.06 196.69 285.98 203.21 283.78 207.19 282.14 211.7 280.06 217.36 277.31 219.94 276.17 225.51 274.18 228.84 272.75 233.64 272.5 239.05 271.86 243.32 270.32 247.87 266.67 254.35 260.81 257.64 257.76 262.23 253.5 265.79 250.35 261.54 251.87 258.51 252.19 255.43 251.83 253.04 251.09 248.4 248.79 245.02 245.67 240.56 240.94 236.18 234.3 232.8 228.5 230.05 222.96 227.93 216.78 226.41 210.34 226.32 207.56 160.33 150.48 155.53 150.48"/><polygon class="e5c68598-49f7-4ccd-ba5b-a9424eed1279" points="245.88 174.12 242.7 170.45 235.57 161.59 232.33 157.19 229.21 153.26 225.7 149.99 221.8 147.24 215.85 144.28 207.74 141.84 200.55 140.33 194.41 140.03 190.2 139.71 184.01 139.64 175.53 140.56 168.44 142.54 164.69 144.16 159.89 146.98 157.6 148.94 154.75 152.88 152.96 156.88 150.34 162.16 148.85 166.86 147.25 173.29 147.1 178.94 147.78 183.64 149.15 189 151.53 195.12 154.44 199.94 157.3 203.22 161.94 207.59 166.08 210.45 171.31 213.05 174.02 214.04 179 215.36 183.48 216.49 188.89 216.45 200.49 216.06 208.21 214.81 217.81 211.96 226.32 207.56 226.41 201.96 227.22 197.02 228.99 191.38 231.25 186.62 233.93 183.58 237.17 180.37 240.54 177.45 244.05 175.13 245.88 174.12"/><polygon class="e5c68598-49f7-4ccd-ba5b-a9424eed1279" points="291.71 365.5 292.73 361.52 300.17 364.72 298.99 368.73 291.71 365.5"/><polygon class="ff7bd1db-0668-4918-aa81-92d928c56e2d" points="266.85 249.1 267.84 249.1 267.6 254.89 267.11 266.94 265.79 280.44 264.06 287.47 262.69 291.25 261.11 293.97 256.7 298.3 254.24 301.34 249.07 305.62 246.1 306.22 235.76 304.12 223.12 299.76 219.65 298.24 220.76 290.33 222.13 283 223.38 277.31 223.92 275.06 225.51 274.18 232.1 272.42 236.59 272.2 242.35 270.91 252.5 262.45 260.56 255.11 266.85 249.1"/><polygon class="e5c68598-49f7-4ccd-ba5b-a9424eed1279" points="224 274.72 223.02 278.27 221.42 286.81 219.98 295.34 219.18 303.96 220.15 322.26 221.17 334.96 222.86 357.14 224 373.66 224 382.22 224 392.63 223.22 408.04 222.82 424.51 222.55 439.74 222.51 448.53 222.65 453.65 224 460.1 225.36 469.82 226.08 476.42 226.39 480.67 225.96 483.7 217.39 486.77 204.91 484.65 198.17 476.3 192.5 468.7 187.46 460.91 186 455.99 186.54 450.81 187.45 448.04 188.66 445.91 190.36 444.14 191.94 429.86 202.13 442.58 200.49 451.85 200.18 457.97 201.95 462.45 206.19 467.6 208.97 470.33 212.13 471.78 214.43 471.48 214.91 468.45 215.34 459.97 215.04 447.06 202.87 442.76 192.15 426.54 193.18 407.2 193.22 398.54 192.45 382.99 191.22 362.44 189.99 343.84 187.44 309.62 185.43 287.73 187.1 287.8 191.41 287.38 196.07 285.99 200.86 284.59 207.19 282.14 212.85 279.38 217.36 277.31 224 274.72"/><polygon class="e5c68598-49f7-4ccd-ba5b-a9424eed1279" points="191.69 432.05 192.29 425.22 203.98 443.16 201.98 443.16 191.69 432.05"/><path class="b06ed23a-062d-4e83-92f6-cab003420ca7" d="M331.46,268.81s-9.07,82.78-4.2,100.8,4.33,19.43,3.27,24-7.2,19.19-8,20.79a4.09,4.09,0,0,1-4.54,2.4c-2.4-.26-17.59-4-23.19-9.33a34.12,34.12,0,0,1-9.34-16.53c-.8-4,7.47-24.53,7.47-34.66s13.55-69.58,8.75-95.44"/><path class="b06ed23a-062d-4e83-92f6-cab003420ca7" d="M299.33,365.85s15.46,3.46,18.4,6.93c0,0,5.06,29.06-5.07,28.53s-16.53-6.4-15.73-14.67S299.33,365.85,299.33,365.85Z"/><path class="b06ed23a-062d-4e83-92f6-cab003420ca7" d="M224,274.65s-5.83,22.59-4.8,36,5,59.32,4.8,68.08-2.31,73.32-1.2,76.11,4.45,27,3.34,28.66-14.75,4.73-17.25,4.45-21.15-24.21-22.54-29.5,1.11-12,3.34-13.63,3.06-33.39,3.62-39.79-5.12-102-7.9-117.3"/><path class="b7e26c97-407c-450f-ab77-8918681231c4" d="M152.92,267.29c-.27,11.28-.42,22.57-.51,33.85s-.08,22.58,0,33.87.32,22.58.75,33.86,1,22.56,2.25,33.79c-1.42-11.21-2.13-22.49-2.75-33.77s-1-22.57-1.25-33.86-.45-22.59-.53-33.89-.09-22.59,0-33.89Z"/><path class="b7e26c97-407c-450f-ab77-8918681231c4" d="M141.75,243.58c-1.17,12.09-2,24.24-2.64,36.38s-1,24.31-1.18,36.47,0,24.33.38,36.49,1.27,24.31,2.44,36.43c-1.33-12.1-2.37-24.24-2.94-36.4s-.92-24.35-.88-36.53.22-24.36.68-36.53,1.14-24.33,2.14-36.5Z"/><path class="b7e26c97-407c-450f-ab77-8918681231c4" d="M293.71,348.21A34.91,34.91,0,0,1,282,340.68a39.33,39.33,0,0,1-8.29-11.28c-.25-.54-.47-1.08-.7-1.62a12,12,0,0,1-.65-1.65,17.91,17.91,0,0,1-.78-3.49l-.17-1.75c0-.59,0-1.17-.05-1.75-.06-1.16,0-2.32,0-3.48.16-4.63.56-9.23,1.07-13.82s1.23-9.17,2.14-13.7,1.9-9,3.07-13.5a237.69,237.69,0,0,1,8.59-26.31l.19.06-6.71,26.78c-1.11,4.45-2.26,8.9-3.3,13.37s-2,8.95-2.9,13.46a74.87,74.87,0,0,0-1.5,13.67,34,34,0,0,0,.66,6.78,17.53,17.53,0,0,0,1,3.18c.41,1,1,2,1.53,3A49.28,49.28,0,0,0,293.79,348Z"/><path class="b7e26c97-407c-450f-ab77-8918681231c4" d="M267.68,248.36a103.27,103.27,0,0,1,.54,11.79,101.1,101.1,0,0,1-.67,11.8c-.52,3.92-1.31,7.8-2.19,11.64-.44,1.92-.93,3.83-1.54,5.72a17.92,17.92,0,0,1-2.64,5.42,115.48,115.48,0,0,1-7.89,8.85,28.2,28.2,0,0,1-2.31,2,9,9,0,0,1-2.93,1.54,5.55,5.55,0,0,1-1.82.17c-.51-.05-1-.12-1.51-.18-1-.15-2-.3-2.95-.5a78,78,0,0,1-22.16-8.29l.09-.18a140.44,140.44,0,0,0,22.47,6.37c1,.18,1.9.35,2.85.49l1.42.17a3.44,3.44,0,0,0,1.1-.07,12.31,12.31,0,0,0,4.47-2.9c2.81-2.61,5.58-5.46,8.34-8.2a15.31,15.31,0,0,0,2.83-4.93,37.06,37.06,0,0,0,1.55-5.62,93.2,93.2,0,0,0,1.16-11.66c.56-7.79,1-15.59,1.59-23.44Z"/><path class="b7e26c97-407c-450f-ab77-8918681231c4" d="M325.87,353.55a25,25,0,0,0,4.49-2.89,9.58,9.58,0,0,0,.91-.89,4.66,4.66,0,0,0,.37-.46.75.75,0,0,1,.08-.18l.09-.29c.25-.8.44-1.69.63-2.56.75-3.5,1.35-7.06,2.1-10.59s1.61-7.06,2.2-10.63a108.43,108.43,0,0,0,1.15-10.79l.67-10.82c.22-3.6.36-7.21.53-10.81.35-7.2.61-14.38.3-21.63l.2,0a90.06,90.06,0,0,1,1.63,21.74c-.11,3.63-.42,7.26-.78,10.87s-.86,7.21-1.46,10.79-1.16,7.16-1.6,10.76-.72,7.22-1.2,10.83c-.26,1.79-.57,3.58-.95,5.36s-.78,3.56-1.28,5.32a22.44,22.44,0,0,1-.89,2.66l-.14.34-.25.42a5.6,5.6,0,0,1-.53.55,11.59,11.59,0,0,1-1.14.88,15.84,15.84,0,0,1-2.47,1.31,18.51,18.51,0,0,1-2.59.91Z"/><path class="b06ed23a-062d-4e83-92f6-cab003420ca7" d="M246,174.3A159,159,0,0,0,263.46,165c4.59-2.79,10.75-4.71,12.71-7"/><path class="b7e26c97-407c-450f-ab77-8918681231c4" d="M266,250a13.33,13.33,0,0,1-7.89,2.88,16.33,16.33,0,0,1-8.35-2.23c-5.08-2.86-8.93-7.22-12.23-11.74a77.25,77.25,0,0,1-8.13-14.66,38.49,38.49,0,0,1-2.35-8.11,37.66,37.66,0,0,1-.59-8.33,64.11,64.11,0,0,0,2,8,48.6,48.6,0,0,0,3,7.48c1.28,2.4,2.57,4.8,4,7.11s2.85,4.62,4.44,6.8a59,59,0,0,0,5.05,6.26,34.17,34.17,0,0,0,5.95,5.22,16.19,16.19,0,0,0,7.21,2.77A14.64,14.64,0,0,0,266,250Z"/><path class="b06ed23a-062d-4e83-92f6-cab003420ca7" d="M226.41,207.81A33.38,33.38,0,0,1,230.35,189,36.62,36.62,0,0,1,245,174.83c.36-.19.72-.36,1.07-.53"/><path class="b06ed23a-062d-4e83-92f6-cab003420ca7" d="M275,187.45a62.46,62.46,0,0,0,14.3,6.37,63.32,63.32,0,0,0,30.19,1.46c1.67-10.35-1.64-19.84-8.27-23.38-6.44-3.42-13.92-.06-20,2.44-3.27,1.35-11.41,4.73-16.25,13.11"/><path class="b06ed23a-062d-4e83-92f6-cab003420ca7" d="M157.3,148.94c.17-.13.32-.27.49-.41,13.67-10.8,30.07-9.17,39-8.28,7.9.79,21.23,2.12,31.17,11.69,4,3.81,4.57,6.23,13.14,16.56q2.63,3.15,5,5.8"/><path class="b7e26c97-407c-450f-ab77-8918681231c4" d="M157.4,149.06a43.61,43.61,0,0,0-5.73,6.2,44.19,44.19,0,0,0-4.39,7.16,51.73,51.73,0,0,0-3.11,7.78,55.69,55.69,0,0,0-2,8.12,40.8,40.8,0,0,0,.51,16.44,39.88,39.88,0,0,0,7,14.81l.73,1-.92.83a30.71,30.71,0,0,0-7.12,9.47,27.69,27.69,0,0,0-2,5.58c-.22.95-.42,2-.58,3s-.27,2-.34,3A19.74,19.74,0,0,0,142,243.68a21.1,21.1,0,0,0,8.69,8h0l.37.19,0,.41a30.27,30.27,0,0,0,7.72,24.23,32,32,0,0,0,10.7,7.37,34.24,34.24,0,0,0,12.68,2.81,45.62,45.62,0,0,0,13-1.67,78.38,78.38,0,0,0,12.46-4.6c2-.92,4.06-1.91,6-2.9s4.08-2,6.21-2.91a63,63,0,0,1,6.53-2.27,39.8,39.8,0,0,1,6.87-1.37,35.17,35.17,0,0,0,6.42-.92c.49-.15,1-.3,1.48-.5l.74-.28.23-.11c.07,0,.18-.12.28-.17a28,28,0,0,0,2.51-1.92c3.38-2.85,6.65-6,10-9s6.68-6.09,9.91-9.15a36.6,36.6,0,0,0,4.38-4.8,56.65,56.65,0,0,0,3.66-5.47,26.26,26.26,0,0,0,2.53-5.91,17,17,0,0,0,.66-6.23,21.83,21.83,0,0,0-1.88-6.12,43.05,43.05,0,0,1-2.27-6.5,40.88,40.88,0,0,1-1.06-6.8,39.28,39.28,0,0,1-.09-6.86,28,28,0,0,1,4.08-12.92l.26.15a28.23,28.23,0,0,0-3.19,12.83,44.78,44.78,0,0,0,.42,6.64,39.05,39.05,0,0,0,1.3,6.49,40,40,0,0,0,2.44,6.14c.48,1,1,2.07,1.39,3.17a17.06,17.06,0,0,1,.9,3.51c.55,4.9-1,9.59-3.15,13.7a59.22,59.22,0,0,1-3.7,5.86,38.21,38.21,0,0,1-4.59,5.28c-3.28,3.17-6.57,6.2-9.86,9.3s-6.61,6.12-10.12,9.08a28.62,28.62,0,0,1-2.87,2.16c-.15.09-.27.17-.44.26l-.53.26-.84.31c-.56.22-1.15.39-1.73.56a20.15,20.15,0,0,1-3.57.65l-3.37.29A47.23,47.23,0,0,0,221,277.3c-2,.8-4,1.75-6.06,2.75s-4.08,1.94-6.17,2.87a80.64,80.64,0,0,1-12.92,4.6,48,48,0,0,1-13.73,1.6,36.76,36.76,0,0,1-13.5-3.15,34.44,34.44,0,0,1-11.31-8c-.82-.84-1.51-1.78-2.24-2.69s-1.33-1.92-1.87-3a25.84,25.84,0,0,1-2.64-6.44,32.94,32.94,0,0,1-.59-13.72l.33.6h0a21.7,21.7,0,0,1-9.88-8,20.45,20.45,0,0,1-2.67-6,22.63,22.63,0,0,1-.7-6.5,31.49,31.49,0,0,1,.27-3.23c.14-1.06.33-2.08.56-3.16a30.43,30.43,0,0,1,2.09-6.16,32.61,32.61,0,0,1,7.74-10.33l-.18,1.81A41.39,41.39,0,0,1,140.14,178a58,58,0,0,1,2.41-8.29,50.51,50.51,0,0,1,3.52-7.88,41.6,41.6,0,0,1,11.14-12.95Z"/><path class="b06ed23a-062d-4e83-92f6-cab003420ca7" d="M226.41,207.81A66.6,66.6,0,0,1,197,216.32c-8.24.37-24.4,1.1-37-10.39-2.12-1.93-11.13-10.58-12.66-24.35-1-9.07,1.72-16,3.57-20.77a55.94,55.94,0,0,1,6.41-11.87"/><path class="b7e26c97-407c-450f-ab77-8918681231c4" d="M219.65,222.55A118.8,118.8,0,0,1,203.16,225a111.27,111.27,0,0,1-16.74.22c-1.4-.13-2.8-.23-4.2-.45s-2.81-.44-4.2-.74a65.44,65.44,0,0,1-8.07-2.47,47.19,47.19,0,0,1-14.51-8.32,77.7,77.7,0,0,0,15.25,6.1c2.62.72,5.26,1.42,7.92,1.91a64.51,64.51,0,0,0,8,1c1.35.12,2.72.17,4.08.25l4.11.11c2.74.09,5.48.07,8.24.08Z"/><path class="b06ed23a-062d-4e83-92f6-cab003420ca7" d="M319.46,195.28s6.91,11.1,14.13,1"/><circle class="ad37adb9-fd84-4387-8005-b6df0b941337" cx="259.26" cy="228.83" r="4.81"/><circle class="ad37adb9-fd84-4387-8005-b6df0b941337" cx="165.18" cy="227.03" r="6.49"/><circle class="ad37adb9-fd84-4387-8005-b6df0b941337" cx="235.13" cy="259.66" r="5.03"/><path class="b7e26c97-407c-450f-ab77-8918681231c4" d="M293.6,162.37c-.53-2-1-4-1.36-6s-.75-4-1.08-6.05-.62-4-.88-6.09-.5-4.06-.65-6.1l-.07-.85.67-.38a29.68,29.68,0,0,0,3.41-2.27,19,19,0,0,0,3-2.83,12.26,12.26,0,0,0,2.14-3.53,9.08,9.08,0,0,0,.46-4l.63.38a80.33,80.33,0,0,0-12.7,6.66,56.81,56.81,0,0,0-5.83,4,22.72,22.72,0,0,0-4.71,4.74l.27-1,.16,3.56.08,3.56c.06,2.37.06,4.75.06,7.13s-.05,4.75-.13,7.13-.2,4.76-.38,7.15h-.3q-.57-3.54-1-7.08c-.28-2.37-.52-4.74-.74-7.1s-.42-4.74-.56-7.11l-.23-3.55-.15-3.56,0-.59.29-.38c.42-.53.83-1.06,1.26-1.57s.92-.91,1.39-1.37a28.61,28.61,0,0,1,3-2.35A48.54,48.54,0,0,1,286,129.1c2.19-1.09,4.46-2,6.73-2.89s4.54-1.69,6.84-2.51l.58-.2.05.59a12.05,12.05,0,0,1-.49,4.47,18.28,18.28,0,0,1-2,4,23.4,23.4,0,0,1-2.8,3.49,21.43,21.43,0,0,1-3.44,3l.6-1.23c.33,2,.6,4.06.79,6.09s.4,4.08.55,6.12.29,4.09.36,6.15.13,4.1.08,6.17Z"/><path class="b06ed23a-062d-4e83-92f6-cab003420ca7" d="M202.15,442.49l12.67,4.87s.49,16.58,0,22.91-15.11-5.36-14.62-13.89A73.37,73.37,0,0,1,202.15,442.49Z"/><path d="M250,12a238.07,238.07,0,0,1,92.64,457.3A238.06,238.06,0,0,1,157.36,30.7,236.51,236.51,0,0,1,250,12m0-7C114.69,5,5,114.69,5,250S114.69,495,250,495,495,385.31,495,250,385.31,5,250,5Z"/></g></svg>